<?xml version="1.0" encoding="UTF-8"?>
<svg fill="#e0a800" width="496.66mm" height="131.23mm" version="1.1" viewBox="0 0 496.66 131.23" xmlns="http://www.w3.org/2000/svg" xmlns:cc="http://creativecommons.org/ns#" xmlns:dc="http://purl.org/dc/elements/1.1/" xmlns:rdf="http://www.w3.org/1999/02/22-rdf-syntax-ns#">
 <metadata>
  <rdf:RDF>
   <cc:Work rdf:about="">
    <dc:format>image/svg+xml</dc:format>
    <dc:type rdf:resource="http://purl.org/dc/dcmitype/StillImage"/>
    <dc:title/>
   </cc:Work>
  </rdf:RDF>
 </metadata>
 <g transform="translate(-26.719 -36.322)">
  <g transform="matrix(2.1167 0 0 2.1167 24.602 34.205)">
   <path d="m63 31v-30h-42v10h-5.54c0.954-1.063 1.54-2.462 1.54-4 0-3.309-2.691-6-6-6s-6 2.691-6 6c0 1.796 0.797 3.406 2.051 4.506-3.516 1.225-6.051 4.565-6.051 8.494v3c0 2.206 1.794 4 4 4v10.5c0 0.539 0.133 1.044 0.351 1.5h-4.351v8h4.35c-0.222 0.627-0.35 1.298-0.35 2 0 1.796 0.797 3.406 2.051 4.506-3.516 1.225-6.051 4.565-6.051 8.494v1h56v-1c0-3.929-2.535-7.269-6.051-8.494 1.254-1.1 2.051-2.71 2.051-4.506 0-0.702-0.128-1.373-0.35-2h10.35v-8h-6.434l-4.8-8zm-40-28h38v26h-38v-12h3c1.302 0 2.402-0.839 2.816-2h12.184v-10h-16v6h-2zm-6.351 36c0.218-0.456 0.351-0.961 0.351-1.5v-20.5h4v14h11.234l-4.8 8zm17.917-8h2.668l-4.8 8h-2.668zm4.434 0.944v7.056h-4.234zm2-0.944h2v8h-2zm4 0.944 4.234 7.056h-4.234zm-16.184-18.944c-0.302-0.847-0.969-1.514-1.816-1.816v-4.184h12v6zm-17.816-10c2.206 0 4 1.794 4 4s-1.794 4-4 4-4-1.794-4-4 1.794-4 4-4zm-4 34.5v-17.5h-2v5c-1.103 0-2-0.897-2-2v-3c0-3.86 3.14-7 7-7h16c0.551 0 1 0.449 1 1s-0.449 1-1 1h-11v22.5c0 0.827-0.673 1.5-1.5 1.5s-1.5-0.673-1.5-1.5v-13.5h-2v13.5c0 0.827-0.673 1.5-1.5 1.5s-1.5-0.673-1.5-1.5zm4 7.5c2.206 0 4 1.794 4 4s-1.794 4-4 4-4-1.794-4-4 1.794-4 4-4zm-7.929 16c0.487-3.388 3.408-6 6.929-6h2c3.521 0 6.442 2.612 6.929 6zm11.878-7.494c1.254-1.1 2.051-2.71 2.051-4.506 0-0.702-0.128-1.373-0.35-2h6.7c-0.222 0.627-0.35 1.298-0.35 2 0 1.796 0.797 3.406 2.051 4.506-2.193 0.764-4 2.348-5.051 4.389-1.052-2.041-2.859-3.625-5.051-4.389zm18.051-4.506c0 2.206-1.794 4-4 4s-4-1.794-4-4 1.794-4 4-4 4 1.794 4 4zm-11.929 12c0.487-3.388 3.408-6 6.929-6h2c3.521 0 6.442 2.612 6.929 6zm11.878-7.494c1.254-1.1 2.051-2.71 2.051-4.506 0-0.702-0.128-1.373-0.35-2h6.7c-0.222 0.627-0.35 1.298-0.35 2 0 1.796 0.797 3.406 2.051 4.506-2.193 0.764-4 2.348-5.051 4.389-1.052-2.041-2.859-3.625-5.051-4.389zm15.051 1.494c3.521 0 6.442 2.612 6.929 6h-15.858c0.487-3.388 3.408-6 6.929-6zm-1-2c-2.206 0-4-1.794-4-4s1.794-4 4-4 4 1.794 4 4-1.794 4-4 4zm14-8h-9.54c-1.099-1.224-2.688-2-4.46-2s-3.36 0.776-4.46 2h-9.08c-1.099-1.224-2.688-2-4.46-2s-3.36 0.776-4.46 2h-9.08c-1.099-1.224-2.688-2-4.46-2s-3.36 0.776-4.46 2h-3.54v-4h58zm-6.766-6h-2.668l-4.8-8h2.668z"/>
   <path d="m41 23v2h-2v-8h-2v8h-2v2h24v-14h-2v12h-2v-10h-2v10h-2v-4h-2v4h-2v-6h-2v6h-2v-2z"/>
   <path d="m43 5h2v2h-2z"/>
   <path d="m47 5h12v2h-12z"/>
   <path d="m43 9h16v2h-16z"/>
   <path d="m25 21h2v2h-2z"/>
   <path d="m25 25h2v2h-2z"/>
  </g>
  <g transform="matrix(.84375 0 0 .84375 33.03 -55.195)" stroke-width="1.1852">
   <path d="m203.75 250.17q-9.4233 0-18.448-3.4508-8.8924-3.5835-16.059-10.75-6.9016-7.0343-10.618-15.794-3.5835-8.8924-3.5835-18.714 0-9.9542 3.5835-18.714 3.7162-8.8924 10.618-15.794 7.167-7.167 16.192-10.75 9.0251-3.5835 18.316-3.5835 9.4233 0 18.316 3.5835 9.0251 3.5835 16.192 10.75l-15.794 15.794q-3.8489-3.8489-8.7597-5.707-4.9107-1.9908-9.9542-1.9908-5.0434 0-9.9541 1.9908-4.778 1.8581-8.6269 5.707-3.7162 3.8489-5.707 8.6269-1.9908 4.778-1.9908 10.087 0 5.3089 1.9908 10.087 1.9908 4.6453 5.707 8.4942 3.8489 3.8489 8.6269 5.8398 4.9107 1.8581 9.9541 1.8581 5.0434 0 9.9542-1.8581 4.9107-1.9908 8.7597-5.8398l15.794 15.927q-7.167 7.167-16.059 10.75-8.8924 3.4508-18.448 3.4508z" style="font-variant-caps:normal;font-variant-east-asian:normal;font-variant-ligatures:normal;font-variant-numeric:normal"/>
   <path d="m211.21 219.71-1.4181-4.3521h-11.296l-1.467 4.3521h-8.7531l12.225-35.893h7.824l11.589 35.893zm-9.8778-12.616h5.8191l-2.8362-8.7042z" style="font-variant-caps:normal;font-variant-east-asian:normal;font-variant-ligatures:normal;font-variant-numeric:normal"/>
   <path d="m233.21 210.42q-0.6357 0.0978-1.2714 0.1467t-1.3203 0.0978v9.0465h-8.2641v-35.795h8.2641q3.0807 0.0489 5.7702 1.1247t4.6944 2.8851q2.0538 1.8093 3.1785 4.2054 1.1736 2.3961 1.1736 5.1345 0 2.8851-1.2225 5.379-1.2225 2.445-3.423 4.2543l7.9218 12.812h-9.7311zm-2.5917-8.0685q1.3203-0.0489 2.4939-0.4401 1.2225-0.4401 2.1027-1.1247 0.9291-0.6846 1.4181-1.5648 0.5379-0.9291 0.5379-1.956t-0.5379-1.9071q-0.489-0.8802-1.4181-1.5648-0.8802-0.6846-2.1027-1.0758-1.1736-0.4401-2.4939-0.489z" style="font-variant-caps:normal;font-variant-east-asian:normal;font-variant-ligatures:normal;font-variant-numeric:normal"/>
   <path d="m271.65 198.1q2.2983 1.7115 3.6186 4.1565 1.3203 2.3961 1.3203 5.2323 0 2.5428-1.0758 4.7922-1.0758 2.2005-2.9829 3.8631-1.8582 1.6626-4.3521 2.6406-2.4939 0.9291-5.3301 0.9291h-10.514v-36.039l9.5355 0.0489q2.2494 0 4.2543 0.7824t3.5208 2.1516q1.5159 1.3203 2.3472 3.1296 0.8802 1.7604 0.8802 3.8142 0 2.445-1.2225 4.4988zm-11.051-6.1125v3.2763h1.3203q1.2225-0.0489 1.956-0.5868t0.7335-1.0758q0-0.489-0.7335-1.0269-0.7335-0.5868-2.0049-0.5868zm2.2494 19.413q1.0758 0 2.0538-0.2934 1.0269-0.3423 1.7604-0.8802 0.7824-0.5379 1.2225-1.2225 0.4401-0.7335 0.4401-1.5159t-0.4401-1.5159-1.2225-1.2714q-0.7335-0.5379-1.7604-0.8313-0.978-0.3423-2.0538-0.3423h-2.2494v7.8729z" style="font-variant-caps:normal;font-variant-east-asian:normal;font-variant-ligatures:normal;font-variant-numeric:normal"/>
   <path d="m295.07 183.77q3.7164 0 6.9927 1.4181t5.7213 3.8631q2.445 2.3961 3.8631 5.6724t1.4181 6.9927-1.4181 6.9927-3.8631 5.7213q-2.445 2.3961-5.7213 3.8142t-6.9927 1.4181-6.9927-1.4181-5.7213-3.8142q-2.3961-2.445-3.8142-5.7213t-1.4181-6.9927 1.4181-6.9927 3.8142-5.6724q2.445-2.445 5.7213-3.8631t6.9927-1.4181zm0 27.628q2.0049 0 3.7653-0.7335 1.7604-0.7824 3.0807-2.1027t2.0538-3.0807q0.7824-1.7604 0.7824-3.7653t-0.7824-3.7653q-0.7335-1.7604-2.0538-3.0807t-3.0807-2.0538q-1.7604-0.7824-3.7653-0.7824t-3.7653 0.7824q-1.7604 0.7335-3.0807 2.0538t-2.1027 3.0807q-0.7335 1.7604-0.7335 3.7653t0.7335 3.7653q0.7824 1.7604 2.1027 3.0807t3.0807 2.1027q1.7604 0.7335 3.7653 0.7335z" style="font-variant-caps:normal;font-variant-east-asian:normal;font-variant-ligatures:normal;font-variant-numeric:normal"/>
   <path d="m336.2 183.82h8.2641v35.893h-8.9487l-11.736-20.929v20.929h-8.2641v-35.795h8.9976l11.687 20.88z" style="font-variant-caps:normal;font-variant-east-asian:normal;font-variant-ligatures:normal;font-variant-numeric:normal"/>
   <path d="m407.46 144.72h-36.366v14.732h28.801v22.43h-28.801v37.826h-22.43v-97.418h58.796z" style="font-variant-caps:normal;font-variant-east-asian:normal;font-variant-ligatures:normal;font-variant-numeric:normal"/>
   <path d="m386.78 210.42q-0.6357 0.0978-1.2714 0.1467t-1.3203 0.0978v9.0465h-8.2641v-35.795h8.2641q3.0807 0.0489 5.7702 1.1247t4.6944 2.8851q2.0538 1.8093 3.1785 4.2054 1.1736 2.3961 1.1736 5.1345 0 2.8851-1.2225 5.379-1.2225 2.445-3.423 4.2543l7.9218 12.812h-9.7311zm-2.5917-8.0685q1.3203-0.0489 2.4939-0.4401 1.2225-0.4401 2.1027-1.1247 0.9291-0.6846 1.4181-1.5648 0.5379-0.9291 0.5379-1.956t-0.5379-1.9071q-0.489-0.8802-1.4181-1.5648-0.8802-0.6846-2.1027-1.0758-1.1736-0.4401-2.4939-0.489z" style="font-variant-caps:normal;font-variant-east-asian:normal;font-variant-ligatures:normal;font-variant-numeric:normal"/>
   <path d="m428.4 192.08h-14.768v5.4279h11.98v8.2641h-11.98v5.6724h14.768v8.2641h-23.032v-35.844l23.032-0.0489z" style="font-variant-caps:normal;font-variant-east-asian:normal;font-variant-ligatures:normal;font-variant-numeric:normal"/>
   <path d="m455.15 192.08h-14.768v5.4279h11.98v8.2641h-11.98v5.6724h14.768v8.2641h-23.032v-35.844l23.032-0.0489z" style="font-variant-caps:normal;font-variant-east-asian:normal;font-variant-ligatures:normal;font-variant-numeric:normal"/>
   <path d="m506.65 250.17q-9.4233 0-18.448-3.4508-8.8924-3.5835-16.059-10.75-6.9015-7.0343-10.618-15.794-3.5835-8.8924-3.5835-18.714 0-9.9542 3.5835-18.714 3.7162-8.8924 10.618-15.794 7.167-7.167 16.192-10.75 9.0251-3.5835 18.316-3.5835 9.4233 0 18.316 3.5835 9.0251 3.5835 16.192 10.75l-15.794 15.794q-3.8489-3.8489-8.7596-5.707-4.9107-1.9908-9.9541-1.9908-5.0434 0-9.9542 1.9908-4.778 1.8581-8.6269 5.707-3.7162 3.8489-5.707 8.6269-1.9908 4.778-1.9908 10.087 0 5.3089 1.9908 10.087 1.9908 4.6453 5.707 8.4942 3.849 3.8489 8.6269 5.8398 4.9107 1.8581 9.9542 1.8581 5.0434 0 9.9541-1.8581 4.9107-1.9908 8.7596-5.8398l15.794 15.927q-7.167 7.167-16.059 10.75-8.8924 3.4508-18.448 3.4508z" style="font-variant-caps:normal;font-variant-east-asian:normal;font-variant-ligatures:normal;font-variant-numeric:normal"/>
   <path d="m505.56 183.77q3.7164 0 6.9927 1.4181t5.7213 3.8631q2.445 2.3961 3.8631 5.6724t1.4181 6.9927-1.4181 6.9927-3.8631 5.7213q-2.445 2.3961-5.7213 3.8142t-6.9927 1.4181-6.9927-1.4181-5.7213-3.8142q-2.3961-2.445-3.8142-5.7213t-1.4181-6.9927 1.4181-6.9927 3.8142-5.6724q2.445-2.445 5.7213-3.8631t6.9927-1.4181zm0 27.628q2.0049 0 3.7653-0.7335 1.7604-0.7824 3.0807-2.1027t2.0538-3.0807q0.7824-1.7604 0.7824-3.7653t-0.7824-3.7653q-0.7335-1.7604-2.0538-3.0807t-3.0807-2.0538q-1.7604-0.7824-3.7653-0.7824t-3.7653 0.7824q-1.7604 0.7335-3.0807 2.0538t-2.1027 3.0807q-0.7335 1.7604-0.7335 3.7653t0.7335 3.7653q0.7824 1.7604 2.1027 3.0807t3.0807 2.1027q1.7604 0.7335 3.7653 0.7335z" style="font-variant-caps:normal;font-variant-east-asian:normal;font-variant-ligatures:normal;font-variant-numeric:normal"/>
   <path d="m546.69 183.82h8.2641v35.893h-8.9487l-11.736-20.929v20.929h-8.2641v-35.795h8.9976l11.687 20.88z" style="font-variant-caps:normal;font-variant-east-asian:normal;font-variant-ligatures:normal;font-variant-numeric:normal"/>
   <path d="m581.16 192.08h-13.399v5.4279h10.611v8.2641h-10.611v13.936h-8.2641v-35.893h21.663z" style="font-variant-caps:normal;font-variant-east-asian:normal;font-variant-ligatures:normal;font-variant-numeric:normal"/>
  </g>
 </g>
</svg>
