<?xml version="1.0" encoding="UTF-8"?>
<svg width="165.02mm" height="226.19mm" version="1.1" viewBox="0 0 165.02 226.19" xmlns="http://www.w3.org/2000/svg" xmlns:cc="http://creativecommons.org/ns#" xmlns:dc="http://purl.org/dc/elements/1.1/" xmlns:rdf="http://www.w3.org/1999/02/22-rdf-syntax-ns#">
 <metadata>
  <rdf:RDF>
   <cc:Work rdf:about="">
    <dc:format>image/svg+xml</dc:format>
    <dc:type rdf:resource="http://purl.org/dc/dcmitype/StillImage"/>
    <dc:title/>
   </cc:Work>
  </rdf:RDF>
 </metadata>
 <g transform="translate(-40.217 -48.767)">
  <path transform="matrix(.26458 0 0 .26458 40.217 48.767)" d="m80 127.68c-26.472 0-48 21.528-48 48 0 14.368 6.3762 27.249 16.408 36.049-28.128 9.8-48.408 36.519-48.408 67.951v24c0 17.648 14.352 32 32 32v84c0 4.312 1.0646 8.352 2.8086 12h-34.809v64h34.801c-1.776 5.016-2.8008 10.384-2.8008 16 0 14.368 6.3762 27.249 16.408 36.049-28.128 9.8-48.408 36.519-48.408 67.951v8h144 16 128 16 144v-8c0-31.432-20.28-58.151-48.408-67.951 10.032-8.8 16.408-21.681 16.408-36.049 0-5.616-1.0248-10.984-2.8008-16h82.801v-64h-51.473l-38.398-64h89.871v-112.32h-0.00391c-5.4159 0-10.754-0.34296-15.996-1.0039v97.324h-304v-96h24c10.416 0 19.215-6.712 22.527-16h97.473v-80h-128v48h-16v-64h193.32c-0.66094-5.2423-1.0039-10.58-1.0039-15.996v-0.00391h-208.32v80h-44.32c7.632-8.504 12.32-19.696 12.32-32 0-26.472-21.528-48-48-48zm0 16c17.648 0 32 14.352 32 32 0 17.648-14.352 32-32 32-17.648 0-32-14.352-32-32 0-17.648 14.352-32 32-32zm256 16v16h16v-16h-16zm32 0v16h9.7246c-2.1133-5.1756-3.9008-10.516-5.3262-16h-4.3984zm-160 16h96v48h-81.473c-2.416-6.776-7.7513-12.111-14.527-14.527v-33.473zm128 16v16h60.639c-4.0649-5.0354-7.7583-10.382-11.033-16h-49.605zm-264 32h128c4.408 0 8 3.592 8 8 0 4.408-3.592 8-8 8h-88v180c0 6.616-5.384 12-12 12-6.616 0-12-5.384-12-12v-108h-16v108c0 6.616-5.384 12-12 12s-12-5.384-12-12v-140h-16v40c-8.824 0-16-7.176-16-16v-24c0-30.88 25.12-56 56-56zm344 16v80h-16v-32h-16v32h-16v-48h-16v48h-16v-16h-16v16h-16v-64h-16v64h-16v16h192v-84.398c-5.4842-1.4254-10.824-3.2129-16-5.3262v73.725h-16v-80h-16zm-288 16h32v112h89.871l-38.398 64h-86.281c1.744-3.648 2.8086-7.688 2.8086-12v-164zm64 32v16h16v-16h-16zm0 32v16h16v-16h-16zm76.527 48h21.344l-38.398 64h-21.344l38.398-64zm51.473 0h16v64h-16v-64zm46.129 0h21.344l38.398 64h-21.344l-38.398-64zm-62.129 7.5527v56.447h-33.871l33.871-56.447zm48 0 33.871 56.447h-33.871v-56.447zm-336 72.447h464v32h-76.32c-8.792-9.792-21.504-16-35.68-16-14.176 0-26.88 6.208-35.68 16h-72.641c-8.792-9.792-21.504-16-35.68-16-14.176 0-26.88 6.208-35.68 16h-72.641c-8.792-9.792-21.504-16-35.68-16-14.176 0-26.88 6.208-35.68 16h-28.32v-32zm64 32c17.648 0 32 14.352 32 32 0 17.648-14.352 32-32 32-17.648 0-32-14.352-32-32 0-17.648 14.352-32 32-32zm144 0c17.648 0 32 14.352 32 32 0 17.648-14.352 32-32 32s-32-14.352-32-32c0-17.648 14.352-32 32-32zm144 0c17.648 0 32 14.352 32 32 0 17.648-14.352 32-32 32-17.648 0-32-14.352-32-32 0-17.648 14.352-32 32-32zm-242.8 16h53.602c-1.776 5.016-2.8008 10.384-2.8008 16 0 14.368 6.3762 27.249 16.408 36.049-17.544 6.112-32 18.783-40.408 35.111-8.416-16.328-22.872-28.999-40.408-35.111 10.032-8.8 16.408-21.681 16.408-36.049 0-5.616-1.0248-10.984-2.8008-16zm144 0h53.602c-1.776 5.016-2.8008 10.384-2.8008 16 0 14.368 6.3762 27.249 16.408 36.049-17.544 6.112-32 18.783-40.408 35.111-8.416-16.328-22.872-28.999-40.408-35.111 10.032-8.8 16.408-21.681 16.408-36.049 0-5.616-1.0248-10.984-2.8008-16zm-197.2 64h16c28.168 0 51.536 20.896 55.432 48h-126.86c3.896-27.104 27.264-48 55.432-48zm144 0h16c28.168 0 51.536 20.896 55.432 48h-126.86c3.896-27.104 27.264-48 55.432-48zm144 0h16c28.168 0 51.536 20.896 55.432 48h-126.86c3.896-27.104 27.264-48 55.432-48z" stroke-width="8"/>
  <g>
   <path transform="matrix(.26458 0 0 .26458 40.217 48.767)" d="m496 18.898a108.79 108.79 0 0 0-108.79 108.79 108.79 108.79 0 0 0 108.79 108.79 108.79 108.79 0 0 0 108.79-108.79 108.79 108.79 0 0 0-108.79-108.79zm-25.902 31.076h51.805v51.807h51.807v51.807h-51.807v51.805h-51.805v-51.805h-51.807v-51.807h51.807v-51.807z" stop-color="#000000" style="paint-order:stroke markers fill"/>
   <g>
    <path d="m43.618 243.78c-0.05402-7.0525 4.4778-14.295 11.616-15.898 3.5394-0.85289 11.208-2.2544 9.1324 4.0119 1.4125 6.3935-7.6933 1.4768-9.9861 6.3492-3.938 5.117-2.104 13.386 3.1562 16.868 3.8633 0.74734 8.4584-0.23594 6.9333 5.3294 0.99718 4.4155-4.1761 3.816-7.0368 3.4149-4.5554-0.70189-8.4117-4.0718-11.073-7.6577-2.42-3.7496-3.0295-8.0621-2.7423-12.418z" style="font-variant-caps:normal;font-variant-east-asian:normal;font-variant-ligatures:normal;font-variant-numeric:normal"/>
    <path d="m68.454 244.04c0.20205-4.8466 0.41752-9.6895 0.15523-14.539 0.54401-3.6307 4.8755-1.6733 7.414-2.1215 5.5258-0.12029 12.013-0.6374 15.973 3.984 3.5412 4.0555 3.3209 10.505 0.8796 15.057-3.3947 2.8434-5.5777 7.4422 0.82786 8.3304 1.1693 2.3921 1.3736 6.7696-0.31045 8.8995-5.9082 1.3998-8.4506-6.0722-13.349-7.813-6.0354-1.1587 0.34122 9.0622-5.0189 7.9165-2.3485-0.43594-7.4408 1.4479-6.6211-2.7012 0.19269-5.6594 0.17588-11.344 0.04997-17.012zm10.762-8.796c-3.4979 0.88308-1.7187 5.1377-2.2249 7.7245-1.1866 3.8697 2.3575 6.0906 5.4846 3.8656 4.0614-2.3317 5.7486-10.384-0.20697-11.331-1.0253-0.016-2.0375-0.13308-3.0527-0.2587z" style="font-variant-caps:normal;font-variant-east-asian:normal;font-variant-ligatures:normal;font-variant-numeric:normal"/>
    <path d="m108.47 227.48c3.3243 0.6116 10.212-2.054 10.607 2.3802 0.8336 3.1859-0.64346 6.3706-4.3464 5.3811-2.8262 0.55778-7.3841-1.7532-8.7993 1.5976-1.2857 4.4027 3.5167 4.9684 6.7814 4.3528 3.5897-0.39126 7.8514-0.0531 6.2608 4.7385 0.67026 3.5895-3.1628 3.574-5.6697 3.385-2.9051-0.0919-8.4097-1.1462-7.4079 3.5313-0.34176 4.7251 5.6063 2.9311 8.5244 3.2985 4.0931-1.289 6.5649 1.4512 6.0537 5.463 0.44183 3.5117-3.8377 1.9216-5.9502 2.4536-5.2374-0.14906-10.488-4e-3 -15.729-0.1035-2.8391-1.8504-1.2664-5.8889-1.8109-8.8478 0.10026-7.3694-0.07735-14.741 0.15522-22.094-1.3989-4.2976 1.8969-6.326 5.7065-5.5881 1.8741-0.0728 3.7442 0.10781 5.6247 0.0515z" style="font-variant-caps:normal;font-variant-east-asian:normal;font-variant-ligatures:normal;font-variant-numeric:normal"/>
    <path d="m136.29 258.06c-5.5335-0.9374-3.7207 7.6967-9.2617 5.795-7.2335 1.6629-2.9194-6.8409-2.8976-10.607 1.3756-5.9427 2.7022-11.848 4.0351-17.797 0.22756-4.9119 2.9077-9.5348 8.4862-7.763 5.9044-1.932 9.386 2.7949 9.6698 8.1992 2.0828 8.3253 3.646 16.713 5.956 24.967 1.7142 4.825-9.8531 4.3022-9.417-0.41401-0.91363-2.9708-4.1564-2.2379-6.5708-2.3798zm-1.4488-14.229c-3.2036 4.5159 3.1389 9.1594 5.9503 4.8637-1.0434-3.0279-0.69764-11.187-4.398-10.607-1.0216 1.7676-1.1384 3.8014-1.5523 5.7433z" style="font-variant-caps:normal;font-variant-east-asian:normal;font-variant-ligatures:normal;font-variant-numeric:normal"/>
    <path d="m150.72 230.38c-0.65981-4.3015 4.4489-2.3765 6.9851-2.8458 5.8176 0.20045 11.66-0.18772 17.437 0.15518 1.8148 1.2582 0.74291 3.9685 1.0865 5.9135-0.24039 4.6049-8.923-0.12151-8.1234 5.78-0.30845 7.3488 0.20895 14.696 0.0517 22.042 0.012 3.9907-5.5596 2.0702-8.1234 2.38-1.6249-2.3046-0.29857-5.4716-0.67277-8.1848-0.2344-6.0938 0.32912-12.184-0.15511-18.255-1.8013-3.6102-9.9127 0.61899-8.4856-5.4846-6e-5 -0.50009 1.2e-4 -1.0002 2.1e-4 -1.5003z" style="font-variant-caps:normal;font-variant-east-asian:normal;font-variant-ligatures:normal;font-variant-numeric:normal"/>
    <path d="m190.05 227.48c3.3243 0.6116 10.212-2.054 10.607 2.3802 0.8336 3.1859-0.64347 6.3706-4.3464 5.3811-2.8262 0.55778-7.3841-1.7532-8.7993 1.5976-1.2857 4.4027 3.5167 4.9684 6.7814 4.3528 3.5897-0.39125 7.8514-0.0531 6.2608 4.7385 0.67025 3.5895-3.1628 3.574-5.6697 3.385-2.9051-0.0919-8.4097-1.1462-7.4079 3.5313-0.34176 4.7251 5.6063 2.9311 8.5244 3.2985 4.0931-1.289 6.5649 1.4512 6.0537 5.463 0.44184 3.5117-3.8377 1.9216-5.9502 2.4536-5.2374-0.14906-10.488-4e-3 -15.729-0.1035-2.8392-1.8504-1.2664-5.8889-1.8108-8.8478 0.10021-7.3694-0.0773-14.741 0.15502-22.094-1.3988-4.2977 1.8969-6.326 5.7066-5.5881 1.8741-0.0728 3.7443 0.10781 5.6248 0.0515z" style="font-variant-caps:normal;font-variant-east-asian:normal;font-variant-ligatures:normal;font-variant-numeric:normal"/>
   </g>
  </g>
 </g>
</svg>
