<svg width="90" height="90" fill="none" xmlns="http://www.w3.org/2000/svg"><circle cx="2.609" cy="2.609" r="2.609" fill="#0DB482"/><circle cx="2.609" cy="36.522" r="2.609" fill="#0DB482"/><circle cx="2.609" cy="70.435" r="2.609" fill="#0DB482"/><circle cx="2.609" cy="19.565" r="2.609" fill="#0DB482"/><circle cx="2.609" cy="53.478" r="2.609" fill="#0DB482"/><circle cx="2.609" cy="87.391" r="2.609" fill="#0DB482"/><circle cx="53.478" cy="2.609" r="2.609" fill="#0DB482"/><circle cx="53.478" cy="36.522" r="2.609" fill="#0DB482"/><circle cx="53.478" cy="70.435" r="2.609" fill="#0DB482"/><circle cx="53.478" cy="19.565" r="2.609" fill="#0DB482"/><circle cx="53.478" cy="53.478" r="2.609" fill="#0DB482"/><circle cx="53.478" cy="87.391" r="2.609" fill="#0DB482"/><circle cx="19.565" cy="2.609" r="2.609" fill="#0DB482"/><circle cx="19.565" cy="36.522" r="2.609" fill="#0DB482"/><circle cx="19.565" cy="70.435" r="2.609" fill="#0DB482"/><circle cx="19.565" cy="19.565" r="2.609" fill="#0DB482"/><circle cx="19.565" cy="53.478" r="2.609" fill="#0DB482"/><circle cx="19.565" cy="87.391" r="2.609" fill="#0DB482"/><circle cx="70.435" cy="2.609" r="2.609" fill="#0DB482"/><circle cx="70.435" cy="36.522" r="2.609" fill="#0DB482"/><circle cx="70.435" cy="70.435" r="2.609" fill="#0DB482"/><circle cx="70.435" cy="19.565" r="2.609" fill="#0DB482"/><circle cx="70.435" cy="53.478" r="2.609" fill="#0DB482"/><circle cx="70.435" cy="87.391" r="2.609" fill="#0DB482"/><circle cx="36.522" cy="2.609" r="2.609" fill="#0DB482"/><circle cx="36.522" cy="36.522" r="2.609" fill="#0DB482"/><circle cx="36.522" cy="70.435" r="2.609" fill="#0DB482"/><circle cx="36.522" cy="19.565" r="2.609" fill="#0DB482"/><circle cx="36.522" cy="53.478" r="2.609" fill="#0DB482"/><circle cx="36.522" cy="87.391" r="2.609" fill="#0DB482"/><circle cx="87.391" cy="2.609" r="2.609" fill="#0DB482"/><circle cx="87.391" cy="36.522" r="2.609" fill="#0DB482"/><circle cx="87.391" cy="70.435" r="2.609" fill="#0DB482"/><circle cx="87.391" cy="19.565" r="2.609" fill="#0DB482"/><circle cx="87.391" cy="53.478" r="2.609" fill="#0DB482"/><circle cx="87.391" cy="87.391" r="2.609" fill="#0DB482"/></svg>