<svg height="512" style="enable-background:new 0 0 512 512" width="512" xml:space="preserve" xmlns="http://www.w3.org/2000/svg"><path d="M63.708 474.666a3.323 3.323 0 0 1-3.316-3.315c0-1.808 1.499-3.288 3.316-3.288h279.578c1.817 0 3.316 1.48 3.316 3.288a3.324 3.324 0 0 1-3.316 3.315H63.708zm163.707 10.24a3.31 3.31 0 0 1-3.313-3.314 3.31 3.31 0 0 1 3.313-3.314H420.88a3.32 3.32 0 0 1 3.316 3.314 3.32 3.32 0 0 1-3.316 3.314H227.415zm213.262 0a3.32 3.32 0 0 1-3.313-3.314 3.32 3.32 0 0 1 3.313-3.314h24.191a3.31 3.31 0 0 1 3.313 3.314 3.309 3.309 0 0 1-3.313 3.314h-24.191zm-387.965-.297a3.33 3.33 0 0 1-3.317-3.314 3.312 3.312 0 0 1 3.317-3.314h91.665a3.32 3.32 0 0 1 3.313 3.314c0 1.806-1.495 3.314-3.313 3.314H52.712zM40.717 260.042a3.312 3.312 0 0 1-3.316 3.316 3.311 3.311 0 0 1-3.313-3.316v-96.649c0-6.093 2.506-11.645 6.521-15.688 4.057-4.043 9.595-6.523 15.688-6.523H88.8a3.32 3.32 0 0 1 3.313 3.315 3.321 3.321 0 0 1-3.313 3.316H56.295a15.562 15.562 0 0 0-10.995 4.554 15.557 15.557 0 0 0-4.583 11.025v96.65zm213.76-130.153 14.069-6.98-14.069-14.068-14.07 14.068 14.07 6.98zm0-61.155c35.737 0 64.698 28.947 64.698 64.687 0 22.183-11.144 41.749-28.15 53.392v27.789c0 9.459-7.734 17.194-17.21 17.194h-16.021v-96.192l31.736-15.713c1.629-.81 2.303-2.803 1.495-4.421a3.295 3.295 0 0 0-4.422-1.509l-11.806 5.849-17.976-17.978a3.319 3.319 0 0 0-4.689 0l-17.993 17.978-11.802-5.849a3.294 3.294 0 0 0-4.422 1.509 3.299 3.299 0 0 0 1.495 4.421l31.75 15.713v96.192h-16.035c-9.461 0-17.21-7.735-17.21-17.194v-27.789c-16.993-11.643-28.15-31.209-28.15-53.392 0-35.739 28.971-64.687 64.712-64.687zm47.961-24.849a3.298 3.298 0 0 1 4.517-1.215 3.311 3.311 0 0 1 1.211 4.504l-10.079 17.465c-.916 1.562-2.938 2.102-4.503 1.184-1.59-.916-2.127-2.938-1.211-4.5l10.065-17.438zm38.421 36.008c1.59-.916 3.611-.377 4.5 1.213.916 1.563.364 3.584-1.211 4.5L326.709 95.66a3.28 3.28 0 0 1-4.502-1.214c-.902-1.562-.361-3.583 1.214-4.501l17.438-10.052zm15.256 50.347c1.832 0 3.313 1.508 3.313 3.314a3.311 3.311 0 0 1-3.313 3.316h-20.134a3.321 3.321 0 0 1-3.316-3.316c0-1.807 1.495-3.314 3.316-3.314h20.134zM203.859 47.174c-.916-1.564-.375-3.586 1.2-4.504a3.294 3.294 0 0 1 4.513 1.215l10.069 17.438c.902 1.563.361 3.584-1.2 4.5a3.322 3.322 0 0 1-4.527-1.184l-10.055-17.465zm-36.007 38.431a3.333 3.333 0 0 1-1.214-4.527 3.324 3.324 0 0 1 4.527-1.186l17.438 10.053c1.565.918 2.102 2.939 1.2 4.529a3.31 3.31 0 0 1-4.513 1.186l-17.438-10.055zm-11.968 51.266a3.314 3.314 0 0 1-3.316-3.316 3.33 3.33 0 0 1 3.316-3.314h20.134c1.832 0 3.313 1.508 3.313 3.314a3.311 3.311 0 0 1-3.313 3.316h-20.134zm95.413-106.517a3.277 3.277 0 0 1 3.327-3.26 3.304 3.304 0 0 1 3.26 3.341l-.229 17.142a3.3 3.3 0 0 1-3.341 3.262c-1.821 0-3.274-1.51-3.26-3.315l.243-17.17zm16.965 237.505v13.664h-27.584v-13.664h-9.3v-13.666h-9.297v-13.664h64.778v13.664h-9.296v13.666h-9.301zm-116.796 23.34h209.068v27.924H151.466v-27.924zm38.822 118.995v18.867h131.435v-18.867H190.288zm-164.287 0h28.192a2.498 2.498 0 0 1-2.453-2.506V177.137c0-10.403 8.503-18.893 18.895-18.893h116.958a69.322 69.322 0 0 0 3.762 8.382 70.185 70.185 0 0 0 9.837 14.203H76.026v206.78h359.962v-206.78H307.733a70.31 70.31 0 0 0 9.865-14.203 68.933 68.933 0 0 0 3.748-8.382h120.019c10.392 0 18.895 8.489 18.895 18.893v233.058h25.739v23.126L364.928 456.58H147.086L26.001 433.32v-23.126z" style="fill-rule:evenodd;clip-rule:evenodd"/></svg>