<svg height="512" style="enable-background:new 0 0 512 512" width="512" xml:space="preserve" xmlns="http://www.w3.org/2000/svg"><path d="m187.567 408.222-.056.055-.053.053-6.843 7.005 43.623 42.616 104.097-106.647-7.563-7.377-46.013 47.128a3.237 3.237 0 0 1-4.591.081 3.245 3.245 0 0 1-.052-4.617l46.012-47.128-31.444-30.677-97.117 99.508zm22.847 5.998a14.118 14.118 0 0 1 3.794-9.766l.21-.238c2.734-2.733 6.289-4.166 9.873-4.192a14.005 14.005 0 0 1 9.766 3.768l.239.239a14.089 14.089 0 0 1 4.219 9.872 14.15 14.15 0 0 1-4.008 9.978c-2.653 2.731-6.183 4.14-9.738 4.218h-.133a13.911 13.911 0 0 1-9.978-3.979c-2.784-2.71-4.191-6.291-4.244-9.9zm8.651-5.44-.133.159a7.542 7.542 0 0 0-2.018 5.228 7.502 7.502 0 0 0 2.281 5.28 7.62 7.62 0 0 0 5.363 2.176h.077a7.605 7.605 0 0 0 5.229-2.281 7.507 7.507 0 0 0 2.147-5.36 7.487 7.487 0 0 0-2.28-5.307l-.158-.16a7.492 7.492 0 0 0-5.201-1.989 7.449 7.449 0 0 0-5.307 2.254zM104.856 234.041l-.4-33.089v-.343l-.105-8.095a16.087 16.087 0 0 0-6.847.107 15.85 15.85 0 0 0-7.748 4.377l-.158.16a15.979 15.979 0 0 0-4.352 11.171 15.874 15.874 0 0 0 4.776 11.226c4.881 4.855 9.896 9.658 14.834 14.486zm1.327 108.639-.133-10.934v-.185l-1.116-91.6c-1.218.662-2.758.503-3.794-.479-3.158-2.92-7.219-4.324-11.25-4.22-4.008.106-8.012 1.698-11.013 4.776l-.158.186c-2.972 3.105-4.404 7.165-4.352 11.172a15.75 15.75 0 0 0 4.776 11.198c6.556 6.581 13.346 13.029 20.007 19.53a3.262 3.262 0 0 1 .053 4.591 3.211 3.211 0 0 1-4.59.052l-.134-.104c-3.13-2.813-7.137-4.166-11.089-4.061-4.008.106-7.988 1.698-11.013 4.803a15.914 15.914 0 0 0-4.513 11.33c.056 4.087 1.646 8.147 4.776 11.226l33.543 32.719zm9.739-167.016 29.479-.371c-8.412-8.279-16.849-16.639-25.366-24.705a15.933 15.933 0 0 0-11.146-4.353 15.812 15.812 0 0 0-11.223 4.776l-.162.16c-2.944 3.104-4.376 7.164-4.324 11.17.024 4.113 1.646 8.201 4.724 11.226l8.041 7.854c.477-.823 1.06-1.539 1.699-2.202a11.602 11.602 0 0 1 8.278-3.555zm52.431 168.422a3.098 3.098 0 0 0-2.148-.876 3.127 3.127 0 0 0-2.123.929c-.53.531-.85 1.3-.85 2.148 0 .823.372 1.567.902 2.098a3.028 3.028 0 0 0 2.151.875c.821 0 1.59-.371 2.12-.901a3.133 3.133 0 0 0 .877-2.149 3.028 3.028 0 0 0-.929-2.124zm-2.201-7.377h.077a9.563 9.563 0 0 1 6.661 2.707 9.47 9.47 0 0 1 2.867 6.714v.079a9.451 9.451 0 0 1-2.681 6.688 9.683 9.683 0 0 1-6.714 2.865h-.077a9.585 9.585 0 0 1-6.688-2.708 9.522 9.522 0 0 1-2.864-6.712v-.08c0-2.574 1.032-4.963 2.706-6.66 1.699-1.752 4.06-2.84 6.713-2.893zm51.902-134.059-107.07 1.301 1.513 124.399 107.07-1.3-.979-81.492v-.133l-.534-42.775zm-107.147-5.201 107.07-1.3-.056-5.997-.024-.053V189.755l-.028-3.557a5.263 5.263 0 0 0-1.618-3.715 5.345 5.345 0 0 0-3.713-1.513l-59.068.716-.238.028h-.081l-.081-.028-37.071.451a5.23 5.23 0 0 0-3.688 1.62 5.21 5.21 0 0 0-1.513 3.581v.373l.028 2.149v.263l.081 7.326zm240.089 78.521 30.57-29.854-84.328-1.008a11.868 11.868 0 0 1-8.279-3.556 11.899 11.899 0 0 1-3.345-8.278l1.222-100.306-5.626 5.493a3.286 3.286 0 0 1-3.292.93c-1.723-.506-2.733-2.31-2.256-4.035l2.176-7.455c6.184-21.043 12.687-43.148 4.724-58.485-2.096-4.033-4.776-6.847-7.615-8.146-1.99-.901-4.086-1.035-6.156-.292-2.281.796-4.618 2.654-6.794 5.732-5.092 7.084-9.153 20.033-10.269 40.307-.501 9.234-5.545 15.684-10.798 22.371-8.093 10.321-16.719 21.334-5.015 45.586 3.66-1.219 7.51-1.007 11.251.85 3.555 1.779 6.952 5.043 9.872 9.978 4.19 7.112 7.56 17.938 9.1 33.144l61.668 63.182 23.19-6.158zm59.864-156.721c-1.035.981-2.572 1.141-3.794.478l-1.246 102.72 33.541-32.72c3.129-3.077 4.723-7.137 4.775-11.223.053-4.087-1.46-8.2-4.513-11.33-3.021-3.106-7.005-4.698-11.009-4.805-3.983-.105-7.964 1.247-11.094 4.061l-.134.106c-1.273 1.246-3.341 1.22-4.59-.054a3.26 3.26 0 0 1 .052-4.591c3.265-3.183 17.594-18.071 20.008-19.53a15.775 15.775 0 0 0 4.776-11.197 15.898 15.898 0 0 0-4.352-11.172l-.157-.186c-2.998-3.079-7.006-4.67-11.014-4.777a15.922 15.922 0 0 0-11.249 4.22zm3.636-46.862a16.12 16.12 0 0 0-6.847-.105l-.502 41.502c2.414-2.361 13.027-13.375 14.831-14.463 3.134-3.078 4.724-7.139 4.776-11.225a15.967 15.967 0 0 0-4.352-11.171l-.158-.159a15.854 15.854 0 0 0-7.748-4.379zm4.327-30.277c.053-4.008-1.383-8.067-4.327-11.173l-.158-.158a15.82 15.82 0 0 0-11.227-4.777c-4.004-.053-8.041 1.381-11.143 4.353-7.83 8.28-17.116 16.664-25.342 24.704l29.455.372H396.691l.13.026h.161l.134.026h.024l.134.027h.157l.134.026.158.027.133.025.162.027h.129v.025l.134.027.161.025.13.027.161.026.134.054.13.026.162.026.133.053.13.053.134.027.133.053.158.053.133.053.134.027.134.054v.026l.133.025v.027l.13.053.134.053.133.054.133.053.134.053v.027l.105.054.134.053.13.078.133.054.109.08.13.079.133.053.105.08.133.08.105.079.134.08.105.079.133.08.109.079.104.08.134.079.105.08.105.08v.026l.104.079.109.08h.024l.081.105h.024l.108.08.187.186h.024l.08.105h.025l.08.08.105.106.109.106.077.078.027.027.024.027.028.026.024.026.028.026.028.026.024.053h.028v.027l.024.026.053.026.108.133.053.053.024.054h.028v.026l.024.026.187.212.027.027.025.025.027.054.028.026.024.027.028.026.024.052.028.027.024.025.028.055.028.027.024.025.027.053.025.026.027.026.024.054.028.026.024.027.028.053.028.025v.027h.024l.028.053v.026l.024.027.028.026v.026l.024.026.028.026v.026h.027v.027l.025.025.027.055v.025h.024l.028.027v.052l.024.027.028.026.024.054.028.026v.026l.028.026.024.025v.055l8.04-7.855c3.129-3.007 4.746-7.093 4.774-11.207zM225.007 239.906l.053 4.086 1.541 1.514-1.594-5.6zm54.214 65.092-3.373-5.36c-.688-.954-.85-2.255-.291-3.369 12.497-24.997 3.717-36.195-4.485-46.65-5.226-6.659-10.24-13.081-10.799-22.288-.133-2.23-.319-4.434-.505-6.662v-.186c-1.404-14.621-4.482-24.863-8.332-31.364-2.257-3.821-4.724-6.236-7.163-7.458-2.176-1.088-4.38-1.193-6.475-.451-1.804.638-3.583 1.938-5.201 3.742-.291.346-.61.584-.982.77-.081.398-.266.771-.504 1.141l-.85 1.326-.821 1.461c-7.96 15.338-1.46 37.441 4.723 58.484l2.176 7.457c.292 1.088.025 2.308-.796 3.156a3.27 3.27 0 0 1-4.618.081l-5.756-5.651.927 76.952v.186l.267 23.192a11.674 11.674 0 0 1-3.345 8.278 11.821 11.821 0 0 1-8.279 3.556l-84.301 1.009 30.568 29.853 23.19 6.155 95.025-97.36zm52.168-9.896-6.9-7.06-.027-.053-.053-.026-57.394-58.803c1.112 6.155 5.067 11.225 9.181 16.452 9.233 11.808 19.105 24.412 5.994 51.903l2.123 3.369h.028l.024-.025h.532l.025.025h.213l.053.027H285.292v.025H285.397l.028.028H285.477l.081.026h.024l.027.026h.053l.028.026H285.742l.024.026H285.818l.028.026h.024l.057.026.024.026h.053l.027.027h.024l.028.027h.028l.024.025.028.027h.024l.053.025.028.026.053.026.027.026h.025l.027.028.024.026H286.476l.028.053h.024l.057.052.024.027h.028v.025l.053.029h.024v.025l.027.026h.028l.024.026.028.026.024.053.053.026 18.813 18.363 25.678-25.038zm68.034-80.51-107.07-1.301-.238 19.982c0 1.434.558 2.76 1.513 3.74a5.352 5.352 0 0 0 3.688 1.592l92.187 1.116h.076l4.275.053c1.432 0 2.758-.585 3.74-1.513.955-.957 1.566-2.257 1.59-3.688l.053-4.192V230.036l.186-15.444zm-60.314 4.59a9.518 9.518 0 0 1 6.661-2.705h.081c2.652.053 5.015 1.141 6.713 2.892a9.478 9.478 0 0 1 2.706 6.661v.079a9.689 9.689 0 0 1-2.867 6.714 9.578 9.578 0 0 1-6.686 2.705h-.081a9.695 9.695 0 0 1-6.713-2.865 9.466 9.466 0 0 1-2.682-6.688v-.078a9.485 9.485 0 0 1 2.868-6.715zm6.686 3.796c-.85 0-1.617.317-2.148.876a3.02 3.02 0 0 0-.93 2.096c0 .849.348 1.619.878 2.176.53.531 1.274.901 2.095.901.85 0 1.618-.317 2.176-.876.53-.529.902-1.273.902-2.095 0-.849-.316-1.62-.874-2.176a3.104 3.104 0 0 0-2.099-.902zM294.027 75.916l107.069 1.3.077-7.456v-.078l.028-2.203V66.817l-.028-.027v-.211l-.024-.053v-.079l-.028-.186-.024-.134-.028-.053v-.081l-.024-.053-.028-.133-.023-.026V65.7l-.029-.053v-.025l-.027-.027V65.543l-.025-.027v-.079l-.027-.026v-.026l-.024-.026V65.307l-.028-.055-.024-.053-.028-.053v-.025l-.027-.027v-.026l-.025-.027v-.031l-.027-.053-.025-.053-.027-.053-.025-.055-.027-.052-.025-.053-.027-.054v-.027l-.053-.025v-.027l-.028-.025v-.027l-.024-.025v-.027l-.028-.027v-.026l-.081-.079v-.026l-.023-.026v-.03l-.029-.026-.023-.026v-.028l-.029-.025-.023-.027v-.025l-.028-.027-.024-.026h-.028v-.026l-.028-.026-.024-.027-.028-.026v-.026l-.024-.026-.028-.053-.024-.027h-.028l-.024-.053-.028-.027-.027-.025-.025-.026v-.026l-.027-.026h-.025l-.027-.054h-.024l-.028-.027v-.026l-.053-.026-.027-.053-.053-.053-.053-.027-.025-.053h-.027l-.028-.026-.053-.053-.053-.054-.053-.026-.052-.054-.029-.025h-.023l-.029-.027v-.025l-.052-.027-.053-.027v-.025l-.053-.027-.053-.026-.053-.053-.053-.026-.056-.026-.053-.054-.053-.025-.053-.027-.053-.027-.053-.025-.053-.053h-.027l-.025-.026h-.027l-.053-.027-.053-.026-.053-.027-.057-.026-.053-.026-.076-.025-.053-.027-.057-.025-.053-.027-.077-.027-.056-.027h-.053v-.025h-.053l-.078-.026-.056-.026h-.053l-.077-.026-.053-.026h-.056l-.077-.027-.053-.026h-.081l-.053-.026h-.052l-.082-.027h-.052l-.134-.025h-.133l-.053-.027h-.264l-.08-.025h-.134l-37.28-.451h-.109l-59.145-.717a5.449 5.449 0 0 0-3.741 1.512 5.36 5.36 0 0 0-1.594 3.689l-.115 9.958zm106.989 7.801-107.069-1.3-.53 42.537v.425l-.982 81.438 107.07 1.301 1.511-124.401zM153.947 256.969v16.718h17.301a22.367 22.367 0 0 0-5.945-10.588 22.266 22.266 0 0 0-11.356-6.13zm32.719-16.002h-32.718v9.367a29.029 29.029 0 0 1 15.946 8.147c4.085 4.061 6.952 9.314 8.012 15.205h8.76v-32.719zm-14.811 39.248h-21.172c-1.779 0-3.264-1.486-3.264-3.265v-20.353a22.355 22.355 0 0 0-13.88 6.501 22.42 22.42 0 0 0-6.581 15.895 22.28 22.28 0 0 0 6.422 15.71l.158.158a22.406 22.406 0 0 0 15.87 6.582 22.508 22.508 0 0 0 15.894-6.555 22.494 22.494 0 0 0 6.553-14.673zm-21.171-45.776h39.246a3.263 3.263 0 0 1 3.264 3.264v39.247c0 1.778-1.46 3.265-3.264 3.265h-11.546c-.315 7.483-3.502 14.275-8.465 19.238-5.278 5.28-12.521 8.518-20.508 8.518a28.941 28.941 0 0 1-20.485-8.491l-.161-.187c-5.148-5.227-8.332-12.418-8.332-20.3a28.887 28.887 0 0 1 8.493-20.512c4.801-4.803 11.304-7.935 18.495-8.412v-12.366c-.002-1.803 1.483-3.264 3.263-3.264zM371.323 85.867c1.272-1.247 3.344-1.247 4.589.053 1.25 1.273 1.25 3.344-.053 4.591l-59.597 58.591c-1.274 1.247-3.345 1.247-4.591-.027a3.266 3.266 0 0 1 .025-4.616l59.627-58.592zm-40.149 64.959a3.26 3.26 0 0 1 4.591.055c1.249 1.271 1.249 3.342-.053 4.59l-20.99 20.645c-1.274 1.246-3.341 1.22-4.591-.055-1.245-1.271-1.245-3.342.053-4.59l20.99-20.645zm47.392-16.293c1.273-1.246 3.344-1.246 4.59.026a3.264 3.264 0 0 1-.053 4.618l-38.183 37.549c-1.274 1.246-3.345 1.219-4.618-.055a3.26 3.26 0 0 1 .053-4.591l38.211-37.547zm-15.045 35.16a3.235 3.235 0 0 1 4.59.025 3.236 3.236 0 0 1-.023 4.591l-25.609 25.183c-1.273 1.248-3.341 1.248-4.59-.053-1.274-1.273-1.246-3.316.027-4.59l25.605-25.156zM141.422 418.386a3.216 3.216 0 0 1-3.264-3.212c-.028-1.777 1.407-3.264 3.211-3.29l13.371-.157c.877 0 1.699.344 2.285.928l37.547 36.646a3.234 3.234 0 0 1 .077 4.59 3.264 3.264 0 0 1-4.615.053l-36.565-35.689-12.047.131zM117.487 486c-1.804 0-3.264-1.486-3.264-3.265a3.261 3.261 0 0 1 3.264-3.264h223.322a3.262 3.262 0 0 1 3.264 3.264c0 1.778-1.461 3.265-3.264 3.265H117.487zm130.766-13.588c-1.779 0-3.264-1.486-3.264-3.264a3.278 3.278 0 0 1 3.264-3.264h154.542a3.262 3.262 0 0 1 3.265 3.264 3.28 3.28 0 0 1-3.265 3.264H248.253zM361.055 486c-1.805 0-3.264-1.486-3.264-3.265a3.26 3.26 0 0 1 3.264-3.264h19.318c1.775 0 3.264 1.458 3.264 3.264 0 1.778-1.488 3.265-3.264 3.265h-19.318zm-252.352-13.189c-1.804 0-3.264-1.46-3.264-3.264s1.46-3.264 3.264-3.264h73.211c1.804 0 3.264 1.46 3.264 3.264s-1.46 3.264-3.264 3.264h-73.211zm13.613-112.858h.425l91.945-1.113a5.363 5.363 0 0 0 3.688-1.592 5.459 5.459 0 0 0 1.512-3.741l-.238-19.955-107.071 1.274.186 15.443v.343l.053 4.193c0 1.432.635 2.732 1.593 3.688a5.402 5.402 0 0 0 3.741 1.512l4.166-.052z" style="fill-rule:evenodd;clip-rule:evenodd"/></svg>