<svg height="512" style="enable-background:new 0 0 512 512" width="512" xml:space="preserve" xmlns="http://www.w3.org/2000/svg"><path d="M187.329 325.383c43.831-.615 87.591-1.159 131.451-1.331-.314-1.804-2.246-3.006-4.18-4.208-2.318-1.446-4.666-2.906-5.582-5.512-.758-2.118.015-3.492 1.06-5.311 1.302-2.291 3.192-5.611 1.016-13.499-.614-2.276-.673-4.479-.716-6.513-.07-3.449-.143-6.213-4.609-6.456-1.646-.101-3.521.086-5.396.258-4.295.415-8.675.83-12.096-1.532-10.106-6.985-7.358-13.126-4.452-19.61.815-1.818 1.646-3.679 2.09-5.512a1.769 1.769 0 0 1 2.119-1.302 1.765 1.765 0 0 1 1.288 2.118c-.529 2.147-1.417 4.151-2.305 6.126-2.291 5.125-4.451 9.963 3.249 15.303 2.377 1.632 6.113 1.273 9.777.916 2.019-.186 4.022-.372 5.912-.271 7.716.43 7.815 4.638 7.931 9.891.028 1.818.085 3.795.587 5.655 2.562 9.29.257 13.355-1.346 16.161-.587 1.016-1.017 1.789-.802 2.404.516 1.446 2.334 2.577 4.137 3.693 2.906 1.804 5.797 3.622 5.912 7.2 7.559-.028 15.131-.043 22.703-.043l-4.652-64.329c-.615-.545-1.346-1.146-1.904-1.719-2.033-1.875-3.692-3.664-5.195-5.539s-2.878-3.852-4.352-6.099c-2.563-3.923-3.164-5.697-4.137-8.603a83.613 83.613 0 0 0-1.231-3.508c-2.205-5.912-5.383-5.582-9.075-5.182l-.029.015c-2.047.215-4.209.458-6.585.028-4.48-.816-8.159-2.09-11.466-4.036-3.278-1.904-6.155-4.452-9.09-7.788l-.101-.114c-2.219-2.576-3.864-4.938-5.482-7.257-2.276-3.25-4.509-6.441-8.445-10.235l-2.348-2.147c-1.26-1.145-2.533-2.291-3.65-3.363l-.058-.058a17.021 17.021 0 0 1-1.46-1.604l-.028-.043a16.652 16.652 0 0 1-1.288-1.89c-.272-.516-.344-1.288-.444-2.447-.229-2.777-.729-8.475-3.307-12.211-2.992-4.309-9.261-6.012-22.588 3.063-1.646 1.976-1.345 3.149-.973 4.581.415 1.646.888 3.507.172 6.327-.444 1.789-.845 3.006-1.174 4.022l-.029.1c-.773 2.348-1.174 3.551-1.088 9.434.058 4.438-.916 7.357-1.932 10.422-.945 2.834-1.933 5.825-2.033 10.392-.029 1.317-.172 5.081-.515 8.045-.229 1.86-.559 3.521-1.045 4.409a1.714 1.714 0 0 1-.501.602c-2.205 1.717-4.753 3.363-7.244 4.952l-3.235 2.09c-2.706 1.817-6.628 7.487-9.305 11.366l-1.374 1.989c-5.311 7.501-6.285 13.513-7.172 18.968-1.146 7.1-2.176 13.369-11.037 20.784-13.513 11.237-11.98 13.513-4.48 24.75l2.132 3.208zm-.401-68.237c-12.869 21.357-33.54 47.868-48.57 68.939l44.791-.645-.859-1.317c-8.976-13.412-10.793-16.146 5.139-29.387 7.859-6.586 8.775-12.254 9.82-18.652.945-5.841 2.004-12.268 7.745-20.428l1.374-1.975c2.835-4.094 7-10.092 10.25-12.268l3.292-2.148c2.277-1.459 4.624-2.963 6.686-4.537.171-.473.343-1.561.501-2.863.343-2.905.472-6.47.501-7.715.114-5.096 1.188-8.346 2.219-11.424.916-2.776 1.803-5.425 1.746-9.275-.086-6.499.358-7.873 1.246-10.578l.028-.086c.329-.959.702-2.119 1.117-3.779.501-1.99.143-3.393-.158-4.609a19.514 19.514 0 0 1-.329-1.403c-.53.773-.658 1.433-.83 2.19-.272 1.303-.601 2.834-1.918 5.125-1.088 1.861-2.033 3.12-2.821 4.165-1.646 2.204-2.49 3.335-2.304 8.89.157 4.781-2.147 7.801-4.566 10.979-2.09 2.75-4.28 5.641-4.495 9.921l-.014.329c-.272 5.555-.315 6.084-2.577 11.566a1.69 1.69 0 0 1-1.16 1.102l-8.03 2.434c-2.448.744-4.51 1.561-6.571 2.377-1.618.645-3.25 1.288-4.896 1.861l-1.002.285c-.258.072-.387.101-.573.33-1.217 1.502-1.26 2.748-1.288 4.051-.057 1.89-.129 3.851-2.076 6.57l-1.418 1.975zm246.456 41.984.143.344c.959 2.29 2.362 4.208 4.051 5.525 1.06.802 2.219 1.389 3.465 1.688v-9.861l-4.996-5.641c-.517 2.95-1.376 5.641-2.663 7.945zm-252.54-113.958a13.74 13.74 0 0 1 9.733 4.036c2.506 2.52 4.052 5.954 4.052 9.749 0 3.807-1.546 7.242-4.037 9.748-2.506 2.49-5.956 4.036-9.749 4.036a13.755 13.755 0 0 1-9.749-4.036 13.75 13.75 0 0 1-4.037-9.748c0-3.795 1.546-7.244 4.037-9.734 2.507-2.506 5.942-4.051 9.75-4.051zm163.273 77.041 4.48 61.796c24.205 0 47.424.987 71.702 1.933-6.742-5.425-18.695-15.059-19.653-16.434-1.261-1.789-1.533-3.807-1.791-5.84-.271-1.99-.543-4.008-1.961-5.225-1.316-1.131-3.821-.486-6.741.271-3.722.974-8.003 2.09-12.568.559l-.086-.029c-.873-.301-1.589-.572-2.291-.83l-2.934-1.116a1.777 1.777 0 0 1-.974-.901l-1.203-2.549c-2.161-4.552-5.539-11.681-5.883-14.715-.114-1.074 0-2.892.129-4.781.143-2.377.314-4.924.215-5.053l-1.23-.344c-1.619-.43-3.694-.744-4.524-.845-7.157-.944-8.23-1.66-12.583-4.523l-2.104-1.374zm-237.051 64.416a740.714 740.714 0 0 1 26.425-.501l37.49-52.649c3.836-5.396 7.673-10.779 11.724-16.462-1.56-.544-2.949-.772-4.28-.974-3.565-.559-6.743-1.073-11.41-6.198l-.987-1.116c-.759-.83-1.36-1.488-1.876-2.047-.816 2.232-1.546 4.107-2.262 5.969-.987 2.549-1.975 5.082-3.163 8.503-1.088 3.163-2.577 5.054-3.994 6.899-1.818 2.334-3.55 4.566-3.865 9.662l-.015.688c-.014.945-.028 1.703-.572 2.634-.602 1.002-1.16 1.775-1.79 2.462-.615.688-1.274 1.26-2.075 1.904l-7.158 5.684c-2.419 1.903-3.121 3.162-4.022 4.809l-.043.086c-.558 1.031-1.202 2.219-2.319 3.794-.83 1.173-1.431 1.688-2.018 2.219-.301.258-.601.53-.959.944-1.002 1.146-1.947 1.933-2.863 2.691-.688.572-1.36 1.131-1.99 1.818a29.694 29.694 0 0 1-1.518 1.503l-.043.043c-.415.401-.844.787-1.274 1.245-4.037 4.338-7.73 8.346-11.652 12.598l-3.491 3.792zm72.275-149.903a1.76 1.76 0 0 1 1.761-1.761c.973 0 1.76.787 1.76 1.761v5.125c0 .959-.787 1.761-1.76 1.761a1.769 1.769 0 0 1-1.761-1.761v-5.125zm20.14 9.59c.845-.473 1.918-.186 2.391.658.487.83.201 1.904-.644 2.391l-4.438 2.549a1.745 1.745 0 0 1-2.39-.645 1.769 1.769 0 0 1 .644-2.391l4.437-2.562zm1.747 22.246a1.737 1.737 0 0 1 .644 2.391c-.472.83-1.546 1.116-2.391.644l-4.437-2.563c-.831-.472-1.117-1.545-.644-2.391.486-.829 1.56-1.131 2.39-.644l4.438 2.563zm-18.366 12.639c0 .959-.787 1.746-1.76 1.746a1.756 1.756 0 0 1-1.761-1.746v-5.125c0-.973.787-1.76 1.761-1.76.973 0 1.76.787 1.76 1.76v5.125zm-20.14-9.605c-.845.473-1.918.187-2.391-.644a1.738 1.738 0 0 1 .644-2.391l4.424-2.563a1.749 1.749 0 0 1 2.39.644 1.737 1.737 0 0 1-.644 2.391l-4.423 2.563zm-1.747-22.231a1.745 1.745 0 0 1-.644-2.391c.472-.844 1.546-1.131 2.391-.658l4.423 2.563a1.744 1.744 0 0 1 .644 2.391 1.738 1.738 0 0 1-2.39.645l-4.424-2.55zm28.329-8.115c.473-.846 1.561-1.131 2.391-.659.83.487 1.131 1.56.644 2.404l-1.56 2.691a1.754 1.754 0 0 1-2.391.659c-.83-.486-1.131-1.561-.644-2.391l1.56-2.704zm11.237 15.945a1.76 1.76 0 1 1 0 3.522h-3.121a1.76 1.76 0 1 1 0-3.522h3.121zm-8.203 17.723a1.763 1.763 0 0 1-.63 2.404c-.844.486-1.918.2-2.405-.645l-1.56-2.705a1.744 1.744 0 0 1 .644-2.391 1.753 1.753 0 0 1 2.391.629l1.56 2.708zm-19.439 1.76a1.758 1.758 0 0 1-2.405.645 1.782 1.782 0 0 1-.644-2.404l1.574-2.707c.473-.83 1.561-1.115 2.391-.629s1.131 1.561.644 2.391l-1.56 2.704zm-11.251-15.961a1.76 1.76 0 1 1 0-3.522h3.121a1.76 1.76 0 1 1 0 3.522h-3.121zm8.203-17.722a1.773 1.773 0 0 1 .658-2.404 1.76 1.76 0 0 1 2.391.659l1.56 2.705a1.77 1.77 0 0 1-.644 2.391c-.845.473-1.918.186-2.391-.645l-1.574-2.706zm288.239 138.28a38.11 38.11 0 0 1 2.004-1.018 38.245 38.245 0 0 1 2.435-1.088c3.449-1.416 6.913-2.347 10.191-2.791 3.45-.457 6.729-.4 9.605.129a1.835 1.835 0 0 1 1.46 2.133 1.845 1.845 0 0 1-2.133 1.475c-2.505-.473-5.382-.516-8.445-.1a36.467 36.467 0 0 0-7.701 1.918l.858.114c6.729.931 12.983 2.548 18.48 4.767a1.81 1.81 0 0 1 1.017 2.377 1.831 1.831 0 0 1-2.376 1.016c-5.226-2.104-11.181-3.65-17.607-4.537-6.213-.859-12.897-1.088-19.797-.602-8.389.602-16.276 2.204-23.319 4.58l-.072.029c-7.256 2.462-13.598 5.74-18.666 9.576a1.842 1.842 0 0 1-2.562-.357 1.857 1.857 0 0 1 .357-2.576c5.368-4.052 12.067-7.516 19.697-10.107l.071-.028a93.387 93.387 0 0 1 3.178-1.002l-.114-29.946c0-.186.015-.372.058-.543v-7.701l5.311-6.457a1.807 1.807 0 0 0-.258-2.563 1.818 1.818 0 0 0-2.563.244l-2.49 3.035v-17.766c0-1.002-.83-1.832-1.832-1.832-1.018 0-1.833.83-1.833 1.832v2.52l-1.303-1.488a1.817 1.817 0 0 0-2.576-.172 1.83 1.83 0 0 0-.186 2.576l4.064 4.667v15.946l-2.333-2.619c-.673-.759-1.833-.83-2.577-.172a1.816 1.816 0 0 0-.156 2.576l5.066 5.727v9.662a13.474 13.474 0 0 1-1.961-1.174l-.1-.057c-4.953-3.607-7-10.207-7.201-17.809-.215-7.944 1.589-16.934 4.223-24.836 1.875-5.683 4.195-10.793 6.471-14.558 3.393 5.726 6.914 15.03 8.918 24.679a83.43 83.43 0 0 1 1.188 7.129l-.014.486.029.314c.485 4.395.544 8.646.043 12.426-.459 3.35-1.36 6.327-2.821 8.674a2.176 2.176 0 0 0-.2.459 12.066 12.066 0 0 1-1.288 1.646l.086 24.091a101.385 101.385 0 0 1 16.247-2.677v-19.611c0-.157.015-.314.043-.457v-.988l5.311-6.441c.63-.787.53-1.934-.257-2.577-.773-.63-1.934-.529-2.563.258l-2.49 3.021v-17.75c0-1.017-.83-1.832-1.832-1.832a1.825 1.825 0 0 0-1.832 1.832v2.505l-1.303-1.475a1.821 1.821 0 0 0-2.577-.187c-.772.659-.844 1.818-.186 2.592l4.065 4.652v6.27l-2.334-2.619a1.822 1.822 0 0 0-2.275-.387c.357-3.693.258-7.701-.2-11.811.014-2.733.873-5.425 2.247-7.386 1.188-1.703 2.748-2.819 4.38-2.819 1.746 0 3.351.959 4.538 2.52 1.302 1.688 2.104 4.064 2.104 6.713 0 .602-.043 1.174-.114 1.718v.058a12.46 12.46 0 0 1-.373 1.717 1.837 1.837 0 0 0 .43 1.762c1.274 1.345 2.319 3.092 3.049 5.081.701 1.933 1.103 4.122 1.103 6.442 0 4.122-1.26 7.844-3.292 10.506a12.864 12.864 0 0 1-1.976 2.048v16.419c3.319-.159 6.583-.159 9.761-.001zm-296.757-77.113c-.759-.529-1.718-1.103-3.121-1.933l-8.818 19.081c-1.46 3.178-3.421 5.082-5.311 6.914-2.405 2.334-4.681 4.538-5.082 9.52l-.028.673c-.015 1.002-.029 1.833-.802 2.819-.802.988-1.532 1.747-2.348 2.434-.773.631-1.589 1.188-2.605 1.805-3.049 1.961-6.471 3.893-9.605 5.74-3.335 1.975-4.251 3.249-5.483 4.952-.758 1.06-1.617 2.262-3.063 3.794-1.074 1.145-1.847 1.66-2.634 2.176-.415.271-.845.558-1.317.973-1.231 1.074-2.434 1.847-3.607 2.576l-.128.086c-.945.588-1.861 1.175-2.692 1.848-.744.629-1.403 1.073-2.032 1.531a27.28 27.28 0 0 0-1.661 1.217l-.057.043a4411.604 4411.604 0 0 0-17.192 14l-7.314 3.778-.143-.042.028-10.865c3.851-2.505 4.968-8.274 5.068-12.512.157-5.668-1.131-12.096-3.006-17.75-1.246-3.721-2.72-7.085-4.209-9.69-2.29 4.122-4.609 10.406-5.969 16.935-1.017 4.866-1.489 9.834-1.003 14.057.459 3.937 1.747 7.186 4.224 8.961.3.215.744.372 1.245.473l-.029 10.034c-6.628-.43-22.216-.572-45.263 4.667a1.75 1.75 0 0 0-1.331 2.09 1.77 1.77 0 0 0 2.09 1.331c28-6.37 44.504-4.667 47.138-4.323.645.186 1.632 0 1.947-.014 7.688-.444 18.166-4.452 24.894-4.725l5.869-6.355c3.679-3.994 7.186-7.787 11.667-12.611.515-.544.973-.974 1.431-1.402l.072-.058c.444-.415.888-.831 1.303-1.303.787-.858 1.56-1.503 2.347-2.147.788-.672 1.618-1.359 2.434-2.29.472-.572.902-.931 1.303-1.303a7.273 7.273 0 0 0 1.474-1.603c.959-1.346 1.561-2.463 2.09-3.436l.057-.086c1.088-2.004 1.933-3.551 4.939-5.884l7.128-5.669c.687-.558 1.217-1.016 1.675-1.518.458-.515.888-1.102 1.374-1.918.058-.114.072-.443.072-.844l.014-.888c.387-6.185 2.434-8.818 4.596-11.595 1.259-1.617 2.562-3.307 3.464-5.898 1.231-3.578 2.219-6.098 3.192-8.631a223.908 223.908 0 0 0 2.718-7.215z" style="fill-rule:evenodd;clip-rule:evenodd"/></svg>