<?xml version="1.0" encoding="UTF-8"?>
<svg fill="#ffffff" width="165.02mm" height="226.19mm" version="1.1" viewBox="0 0 165.02 226.19" xmlns="http://www.w3.org/2000/svg" xmlns:cc="http://creativecommons.org/ns#" xmlns:dc="http://purl.org/dc/elements/1.1/" xmlns:rdf="http://www.w3.org/1999/02/22-rdf-syntax-ns#">
 <metadata>
  <rdf:RDF>
   <cc:Work rdf:about="">
    <dc:format>image/svg+xml</dc:format>
    <dc:type rdf:resource="http://purl.org/dc/dcmitype/StillImage"/>
    <dc:title/>
   </cc:Work>
  </rdf:RDF>
 </metadata>
 <g transform="translate(-40.217 -48.767)">
  <path transform="matrix(.26458 0 0 .26458 40.217 48.767)" d="m80 127.68c-26.472 0-48 21.528-48 48 0 14.368 6.3762 27.249 16.408 36.049-28.128 9.8-48.408 36.519-48.408 67.951v24c0 17.648 14.352 32 32 32v84c0 4.312 1.0646 8.352 2.8086 12h-34.809v64h34.801c-1.776 5.016-2.8008 10.384-2.8008 16 0 14.368 6.3762 27.249 16.408 36.049-28.128 9.8-48.408 36.519-48.408 67.951v8h144 16 128 16 144v-8c0-31.432-20.28-58.151-48.408-67.951 10.032-8.8 16.408-21.681 16.408-36.049 0-5.616-1.0248-10.984-2.8008-16h82.801v-64h-51.473l-38.398-64h89.871v-112.32h-0.00391c-5.4159 0-10.754-0.34298-15.996-1.0039v97.324h-304v-96h24c10.416 0 19.215-6.712 22.527-16h97.473v-80h-128v48h-16v-64h193.32c-0.66093-5.2423-1.0039-10.58-1.0039-15.996v-0.00391h-208.32v80h-44.32c7.632-8.504 12.32-19.696 12.32-32 0-26.472-21.528-48-48-48zm0 16c17.648 0 32 14.352 32 32 0 17.648-14.352 32-32 32-17.648 0-32-14.352-32-32 0-17.648 14.352-32 32-32zm256 16v16h16v-16h-16zm32 0v16h9.7246c-2.1131-5.1754-3.9009-10.516-5.3262-16h-4.3984zm-160 16h96v48h-81.473c-2.416-6.776-7.7513-12.111-14.527-14.527v-33.473zm128 16v16h60.639c-4.0648-5.0354-7.7583-10.382-11.033-16h-49.605zm-264 32h128c4.408 0 8 3.592 8 8 0 4.408-3.592 8-8 8h-88v180c0 6.616-5.384 12-12 12-6.616 0-12-5.384-12-12v-108h-16v108c0 6.616-5.384 12-12 12s-12-5.384-12-12v-140h-16v40c-8.824 0-16-7.176-16-16v-24c0-30.88 25.12-56 56-56zm344 16v80h-16v-32h-16v32h-16v-48h-16v48h-16v-16h-16v16h-16v-64h-16v64h-16v16h192v-84.398c-5.484-1.4253-10.825-3.213-16-5.3262v73.725h-16v-80h-16zm-288 16h32v112h89.871l-38.398 64h-86.281c1.744-3.648 2.8086-7.688 2.8086-12v-164zm64 32v16h16v-16h-16zm0 32v16h16v-16h-16zm76.527 48h21.344l-38.398 64h-21.344l38.398-64zm51.473 0h16v64h-16v-64zm46.129 0h21.344l38.398 64h-21.344l-38.398-64zm-62.129 7.5527v56.447h-33.871l33.871-56.447zm48 0 33.871 56.447h-33.871v-56.447zm-336 72.447h464v32h-76.32c-8.792-9.792-21.504-16-35.68-16-14.176 0-26.88 6.208-35.68 16h-72.641c-8.792-9.792-21.504-16-35.68-16-14.176 0-26.88 6.208-35.68 16h-72.641c-8.792-9.792-21.504-16-35.68-16-14.176 0-26.88 6.208-35.68 16h-28.32v-32zm64 32c17.648 0 32 14.352 32 32 0 17.648-14.352 32-32 32-17.648 0-32-14.352-32-32 0-17.648 14.352-32 32-32zm144 0c17.648 0 32 14.352 32 32 0 17.648-14.352 32-32 32s-32-14.352-32-32c0-17.648 14.352-32 32-32zm144 0c17.648 0 32 14.352 32 32 0 17.648-14.352 32-32 32-17.648 0-32-14.352-32-32 0-17.648 14.352-32 32-32zm-242.8 16h53.602c-1.776 5.016-2.8008 10.384-2.8008 16 0 14.368 6.3762 27.249 16.408 36.049-17.544 6.112-32 18.783-40.408 35.111-8.416-16.328-22.872-28.999-40.408-35.111 10.032-8.8 16.408-21.681 16.408-36.049 0-5.616-1.0248-10.984-2.8008-16zm144 0h53.602c-1.776 5.016-2.8008 10.384-2.8008 16 0 14.368 6.3762 27.249 16.408 36.049-17.544 6.112-32 18.783-40.408 35.111-8.416-16.328-22.872-28.999-40.408-35.111 10.032-8.8 16.408-21.681 16.408-36.049 0-5.616-1.0248-10.984-2.8008-16zm-197.2 64h16c28.168 0 51.536 20.896 55.432 48h-126.86c3.896-27.104 27.264-48 55.432-48zm144 0h16c28.168 0 51.536 20.896 55.432 48h-126.86c3.896-27.104 27.264-48 55.432-48zm144 0h16c28.168 0 51.536 20.896 55.432 48h-126.86c3.896-27.104 27.264-48 55.432-48z" stroke-width="8"/>
  <path transform="matrix(.26458 0 0 .26458 40.217 48.767)" d="m496 18.898a108.79 108.79 0 0 0-108.79 108.79 108.79 108.79 0 0 0 108.79 108.79 108.79 108.79 0 0 0 108.79-108.79 108.79 108.79 0 0 0-108.79-108.79zm-79.197 46.312c97.065 0 118.4 19.228 119.81 78.473h32.238l-70.531 66.816-70.531-66.816h32.139c-1.696-55.599-6.9089-42.253-43.129-78.473z" stop-color="#000000" style="paint-order:stroke markers fill"/>
  <g stroke-width=".26458" style="font-variant-caps:normal;font-variant-east-asian:normal;font-variant-ligatures:normal;font-variant-numeric:normal" aria-label="JOIN">
   <path d="m53.694 241.09q0-0.16204 0-0.81022 0.08102-0.64817 0.08102-0.81022 0-0.40511-0.08102-0.81022 0-0.48613 0-0.97226-0.08102-0.64818-0.16204-1.0533 0-0.48613 0-0.89124 0-0.48613 0-0.97226 0-0.56716 0-1.4584 0-0.24307-0.08102-0.89124 0-0.7292 0-1.4584t-0.08102-1.3774q0-0.7292 0-0.97227 0-0.24306 0-0.72919 0-0.56716 0-1.1343 0.08102-0.64818 0.08102-1.2153 0-0.56716 0-0.81022 0-0.32409-0.08102-0.97227 0-0.7292 0-1.4584 0-0.81022-0.08102-1.4584 0-0.7292 0-0.97226 0-1.6204 1.2153-2.1876 1.2153-0.56715 3.727-0.56715 0.16204 0 0.48613 0.081 0.32409 0 0.7292 0 0.40511 0.081 0.7292 0.16204 0.40511 0 0.56715 0 0.24307 0 0.7292 0 0.56715-0.081 1.2153-0.16204 0.64818-0.081 1.1343-0.081 0.56715-0.081 0.7292-0.081 0.81022 0 1.7825 0.64817 0.97226 0.64818 0.97226 1.9445 0 0.32409-0.08102 1.5394-0.08102 1.1343-0.08102 1.5394 0 0.24306 0 0.89124 0.08102 0.64817 0.08102 1.3774t0 1.3774q0.08102 0.64817 0.08102 0.89124t0 0.81022q0 0.48613-0.08102 1.1343 0 0.64817 0 1.2153 0 0.56715 0 0.81022 0 0.24306 0.08102 1.1343 0.08102 0.89124 0.08102 1.1343 0 0.40511-0.08102 0.7292 0 0.24307 0 0.56716 0 0.16204 0 0.72919 0.08102 0.48614 0.08102 0.64818 0 0.24307-0.08102 1.0533 0 0.81022 0 1.0533 0 0.24307 0 0.89124 0 0.64818 0 1.4584 0.08102 0.7292 0.08102 1.4584 0.08102 0.64817 0.08102 0.89124 0 0.24306 0 0.81022 0 0.56715-0.08102 1.2964 0 0.64818 0 1.2964 0 0.56716 0 0.81022 0 0.24307-0.08102 0.81022 0 0.48613 0 1.1343 0 0.56715-0.08102 1.1343 0 0.56715 0 0.81022 0 0.32409 0 1.4584 0.08102 1.0533 0.08102 1.3774 0 0.48613-0.08102 0.97226 0 0.40511 0 0.81022v2.4307q0 0.40511-0.08102 1.5394-0.08102 1.0533-0.08102 1.7015-0.16204 1.4584-0.24307 2.2686-0.08102 0.81022-0.24307 1.3774-0.08102 0.56716-0.32409 1.1343-0.24307 0.48613-0.7292 1.2964-1.1343 2.0256-2.1066 3.2409-0.89124 1.1343-2.3496 1.9445-0.81022 0.40511-2.1066 0.81022-1.2153 0.32409-1.9445 0.48613-0.24307 0.081-0.97226 0.16205-0.64818 0-1.3774 0.081-0.7292 0-1.3774 0.081-0.56715 0-0.64818 0h-2.6737q-0.24307 0-0.97226 0-0.64818 0-1.4584 0.081-0.7292 0-1.4584 0-0.64818 0-0.97226 0-1.6204 0-2.2686-1.1343-0.64818-1.2153-0.64818-2.6737 0-0.16205 0.08102-0.81022 0-0.64818 0.08102-1.3774 0-0.72919 0-1.3774 0.08102-0.7292 0.08102-1.0533 0.16204-1.1343 0.16204-1.7015 0.08102-0.64817 0.08102-1.0533 0-1.6204 1.0533-1.8635 1.1343-0.24307 4.3752-0.24307 0.40511 0 0.64818 0 0.24307-0.081 0.89124-0.24306 0.89124-0.24307 1.5394-0.64818t1.2964-1.8635q0.16204-0.40511 0.32409-1.1343 0.24307-0.7292 0.40511-1.4584 0.16204-0.81022 0.24307-1.4584 0.08102-0.7292 0.08102-1.0533v-1.8635q0-0.89124 0.08102-1.7825t0.08102-1.7825q0-0.32409-0.08102-1.3774-0.08102-1.0533-0.08102-1.3774t0.08102-1.2964q0.08102-1.0533 0.08102-1.3774z" style="font-variant-caps:normal;font-variant-east-asian:normal;font-variant-ligatures:normal;font-variant-numeric:normal"/>
   <path d="m74.517 244.41q0-1.2964 0.40511-2.9168 0.08102-0.40511 0.24307-1.2964 0.24307-0.97226 0.48613-1.9445 0.24307-0.97226 0.40511-1.7825 0.24307-0.89124 0.40511-1.1343 0.08102-0.16204 0.24307-0.64818 0.24307-0.56715 0.48613-1.1343 0.32409-0.64818 0.48613-1.1343 0.24307-0.48613 0.32409-0.56716 0.16204-0.40511 0.40511-0.72919 0.32409-0.32409 0.56715-0.7292 0.08102-0.16205 0.32409-0.56716 0.24307-0.48613 0.56715-1.0533 0.32409-0.56716 0.56715-1.0533t0.40511-0.64817q0.32409-0.40511 0.7292-0.81022t0.7292-0.81023q0.40511-0.40511 0.7292-0.89124t0.7292-0.89124 0.81022-0.64818q0.40511-0.32408 0.81022-0.64817t0.7292-0.64818q0.40511-0.32409 0.81022-0.64817 0.48613-0.40511 1.6204-0.97227 1.1343-0.64817 1.9445-0.97226 0.40511-0.16205 0.81022-0.24307 0.48613-0.16204 0.89124-0.32409 0.56715-0.16204 1.0533-0.40511 0.56715-0.32408 1.1343-0.48613 0.40511-0.081 1.4584-0.24306 1.1343-0.24307 2.2686-0.32409 1.2153-0.16205 2.1066-0.24307 0.97227-0.16204 1.1343-0.16204 0.24307 0 0.89124 0.081 0.64818 0.081 1.3774 0.24307 0.72919 0.081 1.3774 0.24306 0.64818 0.081 0.89124 0.081 1.0533 0.16205 2.0256 0.32409 1.0533 0.081 2.0256 0.48613 0.081 0.081 0.97227 0.48614 0.89124 0.40511 1.8635 0.89124 1.0533 0.48613 1.8635 0.89124 0.89124 0.40511 1.0533 0.48613 0.32408 0.16205 0.89124 0.64818 0.56715 0.48613 1.1343 1.0533 0.64817 0.48614 1.2153 1.0533 0.56715 0.56715 0.97226 0.89124 0.40511 0.40511 0.7292 0.89124 0.32409 0.40512 0.7292 0.81023 0.48613 0.64817 1.1343 1.1343 0.56716 0.64818 0.89125 1.2153 0.40511 0.56716 0.81022 1.5394 0.24306 0.48613 0.40511 0.97227 0.24306 0.48613 0.40511 0.97226 0.40511 0.81022 0.72919 1.5394 0.40511 0.7292 0.81022 1.5394 0.56716 1.2964 0.81022 2.9978 0.081 0.48613 0.24307 2.0256 0.16204 1.4584 0.24307 3.1599 0.16204 1.7015 0.24306 3.1599 0.081 1.4584 0.081 1.7825 0 0.40511-0.081 1.1343t-0.24306 1.5394q-0.081 0.81022-0.24307 1.5394-0.16204 0.7292-0.24307 1.0533-0.16204 0.40511-0.40511 1.2153-0.16204 0.81022-0.40511 1.7015-0.24306 0.81022-0.48613 1.6204-0.24306 0.81022-0.40511 1.1343-0.40511 0.97226-1.0533 2.3496-0.64818 1.2964-2.2686 3.4839-0.24307 0.40511-0.97226 1.2153-0.64818 0.7292-1.4584 1.5394-0.7292 0.7292-1.5394 1.4584-0.7292 0.64817-1.1343 0.89124-0.56715 0.40511-1.2153 0.64818-0.56715 0.16204-1.2153 0.48613-0.40511 0.24306-0.72919 0.48613-0.32409 0.24307-0.7292 0.40511-0.081 0.081-0.7292 0.40511-0.64818 0.24307-1.4584 0.56715-0.81022 0.24307-1.5394 0.56716-0.64817 0.24306-0.72919 0.24306-0.56716 0.16205-1.1343 0.24307-0.56716 0-1.2153 0.16204-0.40511 0.081-0.7292 0.16205-0.32409 0.081-0.64818 0.16204-1.4584 0.24307-2.5927 0.24307-0.32409 0-0.97226 0-0.64818 0-1.3774-0.081-0.64817 0-1.2963-0.081-0.64818 0-0.89124 0-0.7292-0.081-1.7825-0.40511-0.56715-0.081-1.1343-0.16204-0.48613-0.081-1.0533-0.24307-0.89124-0.16204-1.5394-0.48613-0.81022-0.40511-1.1343-0.48613-0.24307-0.16204-1.1343-0.40511-0.56715-0.16204-1.0533-0.32409-0.48613-0.24306-0.97226-0.56715-0.56715-0.40511-1.0533-0.81022t-1.0533-0.81022q-1.2153-0.89124-2.0256-1.4584-0.81022-0.56715-1.4584-1.1343-0.56715-0.56715-1.2153-1.2964-0.56715-0.81022-1.4584-2.0256-0.48613-0.64817-0.81022-1.0533t-0.56715-0.7292q-0.24307-0.40511-0.48613-0.81022-0.24307-0.48613-0.56715-1.2153-0.24307-0.56716-0.56715-1.0533t-0.56715-0.97226q-0.24307-0.56716-0.48613-1.3774t-0.40511-1.6204-0.32409-1.4584q-0.08102-0.7292-0.16204-1.1343-0.08102-0.64818-0.16204-1.7825-0.08102-1.2153-0.16204-2.4307-0.08102-1.2964-0.16204-2.3496 0-1.1343 0-1.7825zm13.288 0.7292q0 0.16205 0 0.64818 0.08102 0.48613 0.08102 1.0533 0 0.48614 0 0.97227 0.08102 0.48613 0.08102 0.48613 0.08102 0.7292 0.32409 1.4584 0.24307 0.72919 0.40511 1.4584 0.24307 0.97227 0.40511 1.6204 0.24307 0.64818 0.40511 1.0533t0.32409 0.81022 0.48613 0.89124q0.48613 0.89124 1.2153 1.7825 0.81022 0.81022 1.5394 1.5394 0.7292 0.64818 1.2964 1.0533t0.7292 0.48613q0.32409 0.16204 0.64818 0.16204 0.40511 0 0.81022 0.16205 0.24307 0.081 0.40511 0.16204 0.24307 0.081 0.48613 0.16205 0.48613 0.16204 0.81022 0.24306 0.81022 0.16205 1.0533 0.24307 0.32409 0 1.2153 0 0.16204 0 0.7292 0.081 0.56715 0 0.7292 0 0.081 0 1.0533 0 0.97227 0 1.2964-0.081 0.48614-0.081 1.2153-0.40511 0.7292-0.32409 1.4584-0.7292 0.7292-0.48613 1.2964-0.81022 0.64818-0.40511 0.89124-0.64818 0.64818-0.48613 1.2964-1.2153 0.64817-0.72919 1.1343-1.3774 0.56715-0.64818 0.89124-1.1343 0.40511-0.56715 0.48613-0.7292 0.16204-0.24306 0.32409-1.0533 0.24306-0.89124 0.97226-3.565 0.24307-1.1343 0.32409-1.7825 0.081-0.7292 0.081-1.2964 0-0.64817-0.081-1.2964 0-0.64817 0-1.2964v-1.0533q0-0.40511 0-0.64817 0-0.32409-0.081-0.7292 0-0.081-0.24307-0.7292-0.24306-0.64817-0.56715-1.4584-0.24307-0.81022-0.56716-1.5394-0.32408-0.7292-0.56715-1.1343-0.40511-0.64818-0.89124-1.0533-0.48613-0.48613-0.89125-1.0533-0.40511-0.48613-0.81022-0.97227-0.40511-0.56715-0.89124-0.97226-0.24306-0.24307-0.97226-0.56715-0.64818-0.32409-1.3774-0.64818-0.72919-0.32409-1.3774-0.56715-0.56715-0.32409-0.64818-0.32409-0.24306-0.081-0.89124-0.16205-0.64817-0.081-1.2964-0.081-0.64818-0.081-1.2964-0.081-0.56716 0-0.7292 0-0.56715 0-1.1343 0-0.48613 0-0.89124 0.16204-0.81022 0.16205-1.2964 0.32409-0.40511 0.081-0.7292 0.24307-0.32409 0.16204-0.64818 0.32409-0.24307 0.16204-0.7292 0.48613-0.89124 0.56715-1.4584 0.89124-0.48613 0.32409-0.89124 0.64818-0.32409 0.24306-0.64818 0.56715-0.24307 0.24307-0.56715 0.7292-0.64818 0.64817-1.4584 2.0256-0.81022 1.2964-1.0533 1.8635-0.40511 0.7292-0.48613 1.6204-0.08102 0.81022-0.24307 1.7015-0.16204 0.64817-0.32409 1.2964-0.08102 0.64817-0.16204 1.2964v0.48613z" style="font-variant-caps:normal;font-variant-east-asian:normal;font-variant-ligatures:normal;font-variant-numeric:normal"/>
   <path d="m134.8 236.88q0-0.24307 0-0.7292 0.081-0.56715 0.081-1.2153 0.081-0.64818 0.081-1.1343 0.081-0.56715 0.081-0.81022 0-0.89124-0.081-1.7825-0.081-0.97227-0.081-1.8635 0-0.32409 0.081-1.4584 0.16204-1.1343 0.16204-1.4584t-0.081-1.0533q0-0.81022-0.081-1.7015t-0.16205-1.6204q0-0.81022 0-1.1343 0-1.0533 0.56716-2.1876 0.64817-1.2153 1.6204-1.3774 0.16204 0 0.72919 0.081 0.56716 0 0.7292 0 0.32409 0 1.3774 0 1.1343-0.081 1.4584-0.081 0.81022 0 1.6204 0.081 0.81022 0 1.6204 0 0.16205 0 0.81022 0 0.7292-0.081 0.97227-0.081 0.64817 0 0.97226 0.24307t0.64818 0.64818q0.48613 0.64817 0.72919 1.1343 0.24307 0.40511 0.24307 1.3774 0 0.32409-0.081 1.4584 0 1.0533 0 1.4584 0 0.32409 0 1.3774 0.081 0.97227 0.081 1.3774 0 0.24307-0.081 0.81022 0 0.48613 0 1.1343 0 0.64817-0.081 1.2153 0 0.56715 0 0.81022 0 1.3774 0.081 2.8358 0.081 1.4584 0.081 2.8358 0 0.24306 0 0.7292 0 0.48613-0.081 1.0533 0 0.56716 0 1.0533t0 0.7292v3.0788q0 0.16205 0 0.7292 0 0.48613-0.081 1.0533 0 0.56715 0 1.0533t0 0.7292 0 0.97226q0.081 0.7292 0.081 1.5394 0 0.7292 0 1.4584 0.081 0.7292 0.081 1.0533 0 0.24307 0 1.0533t-0.081 1.7825q0 0.89125 0 1.7015 0 0.72919 0 0.97226-0.081 0.56715-0.16205 1.1343 0 0.48613 0 1.0533 0 0.16205 0 0.64818 0.081 0.48613 0.081 1.0533 0 0.56715 0 1.0533 0.081 0.48613 0.081 0.7292v6.6438q0 0.32409 0.081 1.3774 0.16204 1.0533 0.16204 1.4584 0 1.1343-0.81022 1.7825-0.81022 0.56715-1.7015 0.56715-0.16204 0-0.97226-0.081t-1.0533-0.081q-0.40511 0-1.6204 0.081t-1.6204 0.081q-0.24306 0-1.1343-0.081-0.81022-0.081-1.0533-0.081-0.16205 0-0.89124 0.081-0.7292 0.081-0.89125 0.081-1.2964 0-1.9445-0.7292-0.56716-0.81022-0.64818-1.2964-0.081-0.16204-0.081-0.89124 0-0.81022 0-0.89124 0-0.64818 0-1.1343 0.081-0.56715 0.16204-1.1343 0.081-0.81022 0.081-1.5394 0.081-0.81022 0.081-1.6204 0-0.48613-0.081-1.7825 0-1.2964 0-2.7548 0-1.5394-0.081-2.8358 0-1.3774 0-1.9445 0-0.16204 0.081-0.64817 0.081-0.56716 0.081-0.7292 0-0.24307-0.16205-0.97226-0.081-0.81022-0.081-1.0533 0-0.32409 0-1.2153 0.081-0.89124 0.16204-1.9445 0.081-1.0533 0.081-1.9445 0.081-0.97226 0.081-1.3774 0-1.4584-0.16205-2.8358-0.081-1.4584-0.081-2.8358z" style="font-variant-caps:normal;font-variant-east-asian:normal;font-variant-ligatures:normal;font-variant-numeric:normal"/>
   <path d="m156.67 222.86q0-0.24307-0.16204-1.1343-0.081-0.97226-0.081-1.2964 0-0.48613 0-0.97226 0-0.48614 0.16204-0.89125t0.56715-0.81022q0.40511-0.48613 1.0533-0.48613 0.16204 0 0.81022 0.16205 0.64818 0.081 0.89124 0.081h0.48613q0.24307-0.081 0.7292-0.081h1.2153l0.16205 0.081h0.48613q0.081 0 0.32409 0 0.24306 0 0.56715-0.081h1.0533q0.40511 0 1.2964 0.081 0.89124 0 1.2964 0.16204 0.16204 0.081 0.32409 0.16205 0.16204 0 0.32409 0.081 0.40511 0.16204 0.72919 0.081 0.40511-0.081 0.81022 0.081 0.40511 0.16205 0.89125 0.56716 0.48613 0.40511 0.56715 0.48613 0.24307 0.32409 0.97226 1.4584 0.81022 1.0533 1.5394 2.3496 0.81022 1.2153 1.4584 2.3496 0.7292 1.0533 0.89124 1.2964 0.32409 0.32409 0.64818 0.81022 0.24306 0.40511 0.40511 0.7292 0.24306 0.32409 0.48613 0.64818 0.56715 0.97226 0.89124 1.5394 0.40511 0.56715 0.64818 0.97226 0.24306 0.40511 0.40511 0.7292 0.16204 0.24306 0.32408 0.64817 0.40511 0.81022 0.97227 1.7825 0.64817 0.89124 1.2964 1.7015 1.1343 1.7015 2.1876 3.484 1.0533 1.7825 1.9445 3.646 0.16205 0.32408 0.7292 1.3774 0.64818 1.0533 0.81022 1.4584 0.32409 0.48613 0.7292 1.1343 0.40511 0.56716 0.56715 0.56716 0.64818 0 0.64818-1.1343 0.081-1.2153 0.081-2.3496 0-0.24306 0-1.0533 0.081-0.89125 0.081-1.1343 0-0.40511-0.081-0.7292 0-0.40511 0-0.81022 0-0.32409 0.081-1.2153 0.081-0.97226 0.081-1.2964t-0.16205-1.4584q-0.081-1.1343-0.081-1.5394 0-0.16204 0-0.64817 0.081-0.48613 0.081-0.97227 0.081-0.56715 0.081-1.0533 0.081-0.48613 0.081-0.7292t-0.081-0.81022q0-0.56715-0.081-1.1343 0-0.64817-0.081-1.2153 0-0.56715 0-0.81022 0-0.32409 0-1.1343 0-0.89124 0-1.7825 0-0.97227 0-1.7825t0-1.2153q0-0.16204-0.081-0.97226-0.081-0.89124-0.081-1.2153 0-0.89124 0.48614-1.2964 0.48613-0.48613 0.81022-0.64818 0.16204-0.081 0.56715-0.081t1.6204 0h2.1066q0.16205 0 0.56716 0t0.89124 0.081q0.40511 0 0.81022 0.081 0.48613 0 0.64818 0 0.40511 0 0.81022 0 0.40511-0.081 0.81022-0.081 0.16204 0 0.72919-0.081 0.56716-0.081 0.7292-0.081 0.64818 0 1.3774 0.7292 0.72919 0.64817 0.72919 2.2686 0 0.24307-0.081 0.7292 0 0.48613-0.081 1.1343 0 0.56715-0.081 1.1343 0 0.48613 0 0.72919 0 0.16205 0 0.7292 0 0.56716 0 1.2153 0.081 0.56716 0.081 1.1343 0 0.48613 0 0.7292t0 0.97226q0 0.7292-0.081 1.6204 0 0.81022 0 1.5394t0 1.0533v2.6737q0 0.64818 0 1.2153 0 0.56716-0.081 1.2153 0 0.24307-0.081 0.89125 0 0.64817-0.081 1.3774 0 0.7292-0.081 1.4584 0 0.64817 0 0.89124 0 0.24306 0 0.81022 0.081 0.56715 0.081 1.2153 0 0.64817 0 1.2964 0.081 0.56715 0.081 0.81022 0.081 1.2964 0 3.0788 0 1.7825 0 3.1598 0 1.5394 0 3.727 0.081 2.1066 0.081 3.727 0 0.32409-0.081 0.64817 0 0.24307 0 0.48614-0.081 0.40511-0.16204 0.81022 0 0.32408 0 0.72919 0 0.24307 0 1.1343 0.081 0.81022 0.081 1.0533 0 0.32409 0.081 1.1343t0.16205 1.7825q0.081 0.89124 0.16204 1.7825 0.081 0.81022 0.081 1.1343t-0.081 0.81022q0 0.40511-0.32409 0.89124-0.24306 0.40511-0.89124 0.7292-0.56715 0.32409-1.7015 0.32409-0.32409 0-0.64818 0-0.32408 0-0.64817-0.081-0.16205 0-0.81022 0.081-0.56716 0-0.7292 0-0.32409 0-1.4584-0.081-1.0533-0.081-1.3774-0.081-0.24307 0-0.97226 0.081-0.7292 0.081-0.97227 0.081-1.3774 0-2.2686-1.0533-0.81023-1.0533-1.4584-2.4307-0.24307-0.56715-0.48613-0.89124-0.16205-0.32409-0.32409-0.56715-0.16205-0.24307-0.40511-0.56716-0.24307-0.32408-0.56716-0.89124-0.72919-0.97226-1.3774-2.0256-0.64818-1.0533-1.2153-2.1066-1.1343-2.1066-2.0256-3.484-0.81022-1.3774-0.89124-1.5394-0.24307-0.40511-0.56716-0.7292-0.24306-0.40511-0.56715-0.81022-0.24307-0.40511-0.48613-0.81022-0.24307-0.48613-0.56716-0.89124-0.40511-0.56716-0.81022-1.1343-0.40511-0.56716-0.81022-1.1343l-0.97226-1.7015q-0.40511-0.64818-0.89124-1.3774-0.40511-0.72919-0.81022-1.3774-0.48613-0.81022-0.89124-1.6204t-0.81022-1.6204q-0.16205-0.32409-0.40511-0.56715-0.16205-0.32409-0.40511-0.56716-0.24307-0.16204-0.64818-0.40511-0.40511-0.32409-0.7292-0.32409-0.081 0-0.48613 0.24307-0.40511 0.16204-0.56715 1.2964 0 0.24307-0.081 0.81022 0 0.56716-0.081 1.2964 0 0.64818-0.081 1.2964 0 0.56715 0 0.81022 0 0.24306 0 1.1343 0.081 0.81022 0.081 1.1343 0 0.16205-0.081 0.97227 0 0.81022 0 1.0533v1.8635q0 0.16204-0.081 0.97226 0 0.7292 0 0.97227 0 0.16204 0 0.56715 0 0.32409 0.081 0.7292t0.081 1.6204q0 1.1343 0 1.7825 0 0.24307 0.081 1.2964 0.081 1.0533 0.081 1.3774 0.081 0.32409 0 1.3774 0 1.0533 0 1.4584 0 0.56715 0.081 0.81022 0 0.32409 0.16204 1.3774 0.16205 0.97227 0.16205 1.2964 0 0.97227-0.89125 1.7825-0.89124 0.7292-1.2153 0.81022-0.16204 0.081-0.81022 0.081-0.56715-0.081-0.72919-0.081-0.24307 0-1.2153 0.16204-0.89125 0.16205-1.2153 0.16205-0.16205 0.081-0.89125 0.081-0.72919 0-0.89124 0-0.32409 0-1.4584 0.081-1.0533 0.081-1.3774 0.081-0.97226 0-1.5394-0.16204-0.48613-0.24307-0.64817-0.40511-0.81022-0.56716-0.89124-1.0533-0.081-0.48613-0.081-0.97226 0-0.24307 0-0.81022 0-0.64818 0-1.2964 0-0.64818 0-1.2964 0-0.64817 0-0.89124 0-0.24306 0-0.89124 0.081-0.64818 0.081-1.3774 0-0.7292 0-1.3774 0.081-0.7292 0.081-0.97226 0-0.24307-0.081-1.1343 0-0.89124 0-1.2153v-2.0256q0-0.16204 0-0.7292 0.081-0.56715 0.081-1.1343 0-0.64817 0-1.1343 0.081-0.56716 0.081-0.81022 0-0.16205-0.081-1.0533-0.081-0.97226-0.081-1.2153-0.081-0.56715-0.081-1.0533 0-0.56715 0-1.0533 0-1.6204 0-3.1599 0.081-1.6204 0.16205-3.1599 0.16204-1.2964 0.16204-1.5394 0-0.32408 0-0.72919 0-1.1343-0.16204-2.2686-0.081-1.1343-0.16205-2.2686 0-0.24306 0-0.97226t0-1.5394q0.081-0.81022 0.081-1.5394 0-0.72919 0-1.0533 0-0.24307-0.081-0.89124 0-0.7292 0-1.5394t-0.081-1.4584q0-0.7292 0-1.0533 0-0.16205 0-0.89125 0.081-0.7292 0.081-0.89124t-0.081-0.64818q0-0.56715 0-0.72919z" style="font-variant-caps:normal;font-variant-east-asian:normal;font-variant-ligatures:normal;font-variant-numeric:normal"/>
  </g>
 </g>
</svg>
