<svg width="83" height="28" fill="none" xmlns="http://www.w3.org/2000/svg"><path d="M24.376 9.984h-5.599a5.477 5.477 0 0 0-.626-1.93 4.912 4.912 0 0 0-1.215-1.457 5.345 5.345 0 0 0-1.713-.92 6.552 6.552 0 0 0-2.084-.32c-1.355 0-2.535.336-3.541 1.01-1.006.664-1.786 1.636-2.34 2.914-.553 1.27-.83 2.813-.83 4.628 0 1.867.277 3.435.83 4.705.563 1.27 1.347 2.228 2.353 2.876 1.005.648 2.169.972 3.49.972.741 0 1.427-.098 2.058-.294a5.409 5.409 0 0 0 1.7-.857 4.934 4.934 0 0 0 1.228-1.393 5.43 5.43 0 0 0 .69-1.867l5.6.026a10.131 10.131 0 0 1-1.087 3.477 10.452 10.452 0 0 1-2.314 2.979c-.963.869-2.114 1.56-3.452 2.07-1.33.503-2.834.755-4.513.755-2.335 0-4.423-.529-6.264-1.585-1.832-1.057-3.281-2.587-4.346-4.59C1.344 19.18.815 16.756.815 13.91c0-2.855.537-5.284 1.611-7.287C3.5 4.62 4.957 3.094 6.798 2.045 8.64.99 10.71.46 13.011.46c1.517 0 2.924.213 4.22.64a10.697 10.697 0 0 1 3.464 1.866 9.6 9.6 0 0 1 2.454 2.979c.64 1.176 1.048 2.522 1.227 4.04ZM28.346 27V.818H45.68v4.564h-11.8v6.239h10.65v4.564H33.88V27h-5.535Zm44.16-17.016h-5.6a5.477 5.477 0 0 0-.627-1.93 4.912 4.912 0 0 0-1.214-1.457 5.345 5.345 0 0 0-1.713-.92 6.552 6.552 0 0 0-2.084-.32c-1.355 0-2.535.336-3.541 1.01-1.006.664-1.786 1.636-2.34 2.914-.553 1.27-.83 2.813-.83 4.628 0 1.867.276 3.435.83 4.705.563 1.27 1.347 2.228 2.353 2.876 1.005.648 2.169.972 3.49.972.741 0 1.427-.098 2.058-.294a5.409 5.409 0 0 0 1.7-.857 4.936 4.936 0 0 0 1.228-1.393 5.43 5.43 0 0 0 .69-1.867l5.6.026a10.131 10.131 0 0 1-1.087 3.477 10.45 10.45 0 0 1-2.314 2.979c-.963.869-2.114 1.56-3.452 2.07-1.33.503-2.834.755-4.513.755-2.335 0-4.423-.529-6.264-1.585-1.832-1.057-3.281-2.587-4.346-4.59-1.057-2.003-1.586-4.427-1.586-7.274 0-2.855.537-5.284 1.611-7.287 1.074-2.003 2.531-3.528 4.372-4.577C56.768.99 58.84.46 61.14.46c1.517 0 2.924.213 4.219.64a10.697 10.697 0 0 1 3.465 1.866 9.602 9.602 0 0 1 2.454 2.979c.64 1.176 1.048 2.522 1.227 4.04Zm7.05 17.348a2.986 2.986 0 0 1-2.174-.895 2.986 2.986 0 0 1-.894-2.173c0-.835.298-1.55.894-2.148a2.986 2.986 0 0 1 2.174-.894c.818 0 1.534.298 2.148.894.613.597.92 1.313.92 2.148 0 .563-.145 1.078-.435 1.547-.281.46-.652.831-1.112 1.112a2.93 2.93 0 0 1-1.521.41Z" fill="#222" /></svg>