<?xml version="1.0" encoding="UTF-8"?>
<svg fill="#ffffff" width="165.02mm" height="226.19mm" version="1.1" viewBox="0 0 165.02 226.19" xmlns="http://www.w3.org/2000/svg" xmlns:cc="http://creativecommons.org/ns#" xmlns:dc="http://purl.org/dc/elements/1.1/" xmlns:rdf="http://www.w3.org/1999/02/22-rdf-syntax-ns#">
 <metadata>
  <rdf:RDF>
   <cc:Work rdf:about="">
    <dc:format>image/svg+xml</dc:format>
    <dc:type rdf:resource="http://purl.org/dc/dcmitype/StillImage"/>
    <dc:title/>
   </cc:Work>
  </rdf:RDF>
 </metadata>
 <g transform="translate(-40.217 -48.767)">
  <g stroke-width=".26458" style="font-variant-caps:normal;font-variant-east-asian:normal;font-variant-ligatures:normal;font-variant-numeric:normal" aria-label="REGISTER">
   <path d="m42.309 244.57q0-0.36064 0-0.76135 0-0.44078 0.04007-0.84149 0-1.0018 0.08014-1.9635t0.12021-1.9635q0-0.16029 0-0.64114 0-0.48086-0.04007-1.0018 0-0.52093 0-0.96171 0-0.48085 0-0.68121t-0.04007-0.80142q-0.04007-0.60107-0.04007-0.80143 0-0.40071 0-0.84149 0.04007-0.48086 0.20036-0.8415 0.16028-0.40071 0.48086-0.64114 0.36064-0.24043 0.96171-0.24043 0.12021 0 0.52092 0.0401t0.52093 0.0401q0.12021 0 0.52092 0 0.44078-0.0401 0.561-0.0401 0.08014 0 0.32057 0 0.24043 0 0.52092 0.0401 0.2805 0 0.52093 0t0.36064 0h1.3223q0.16028 0 0.68121 0 0.561-0.0401 0.76135-0.0401 0.32057 0 0.76135 0 0.48085-0.0401 0.80142-0.0401 0.12021 0 0.48085 0.0401 0.36064 0 0.76135 0.0401 0.40071 0 0.76135 0.0401 0.36064 0 0.48085 0.0401 0.12021 0 0.40071 0.0801 0.2805 0.0801 0.60107 0.16029 0.32057 0.0801 0.60107 0.16028 0.2805 0.0801 0.44078 0.12021 0.12021 0.0802 0.40071 0.20036 0.2805 0.12021 0.60107 0.2805 0.32057 0.16028 0.561 0.2805 0.2805 0.12021 0.32057 0.12021 0.48085 0.2805 0.96171 0.68121 0.52092 0.40071 0.72128 0.60107 0.04007 0.0401 0.20036 0.32057 0.20036 0.24043 0.40071 0.561 0.24043 0.28049 0.40071 0.56099 0.20036 0.24043 0.24043 0.2805 0.04007 0.0801 0.20036 0.40071 0.16028 0.32057 0.32057 0.76136 0.16028 0.44078 0.2805 0.9617 0.16028 0.52093 0.16028 0.96171 0 0.0802-0.04007 0.44079 0 0.36064 0 0.44078 0 0.20036 0.04007 0.80142 0.04007 0.60107 0.04007 0.80143 0 0.32057-0.08014 0.88156-0.08014 0.52093-0.24043 1.122-0.12021 0.60107-0.32057 1.1621-0.16028 0.561-0.36064 0.96171-0.12021 0.24043-0.36064 0.561-0.24043 0.32057-0.52093 0.64114-0.24043 0.32057-0.48085 0.64114-0.24043 0.2805-0.40071 0.44078-0.52093 0.561-0.8415 0.92164-0.32057 0.32057-0.48085 0.52092-0.16028 0.20036-0.20036 0.36064-0.04007 0.16029-0.04007 0.36065 0 0.44078 0.20036 0.68121 0.24043 0.24042 0.52092 0.44078 0.64114 0.48085 1.3224 0.84149 0.68121 0.32057 0.88157 0.40072 0.20036 0.0801 0.32057 0.12021 0.16028 0 0.36064 0.0801 0.44078 0.2805 0.52093 0.64114 0.08014 0.36064 0.08014 0.561 0 0.20035-0.04007 0.44078 0 0.24043 0 0.44078 0 0.12022 0.04007 0.52093t0.04007 0.52093q0 0.0801-0.04007 0.36064 0 0.24042-0.04007 0.52092 0 0.2805-0.04007 0.52093 0 0.24043 0 0.36064 0 0.0801 0 0.44078 0.04007 0.32057 0.04007 0.40071 0 0.48086-0.24043 0.76136-0.24043 0.24042-0.561 0.40071-0.2805 0.16028-0.561 0.20035-0.24043 0.0401-0.32057 0.0401-0.64114 0-1.2422-0.20036t-1.122-0.44078q-0.48085-0.2805-0.80142-0.52093-0.32057-0.2805-0.44078-0.36064-0.44078-0.36064-1.2422-1.0418-0.76135-0.72128-1.3224-1.4025-0.08014-0.12022-0.20036-0.24043-0.12021-0.16028-0.24043-0.24043-0.32057-0.2805-0.76135-0.52092-0.08014-0.0802-0.44078-0.36064-0.36064-0.2805-0.44078-0.36064-0.80142-0.52093-1.2021-0.60107-0.36064-0.12022-0.80142-0.12022-0.16028 0-0.36064 0.0802-0.16028 0.0801-0.24043 0.12021-0.2805 0.20036-0.40071 0.36064-0.08014 0.16029-0.20036 0.44078-0.20036 0.40072-0.24043 0.68121-0.04007 0.24043-0.04007 1.0819 0 0.20035 0 0.40071 0.04007 0.16028 0.12021 0.80142 0.04007 0.12022 0.12021 0.64114 0.08014 0.48086 0.08014 0.64114 0 0.561-0.36064 0.8415-0.32057 0.28049-0.72128 0.28049-0.20036 0-0.44078-0.0401-0.20036-0.0401-0.40071-0.0801-0.20036-0.0401-0.40071-0.0401-0.20036-0.0401-0.40071-0.0401-0.04007 0-0.40071 0.0401-0.36064 0-0.44078 0-0.20036 0.0401-0.40071 0.0401t-0.52093 0q-0.16028 0-0.72128 0.0401-0.561 0-0.72128 0-0.36064 0-0.60107-0.16028-0.24043-0.16029-0.40071-0.36064-0.12021-0.24043-0.16028-0.48086-0.04007-0.24042-0.04007-0.40071 0-0.24043 0.04007-0.48085 0.04007-0.24043 0.08014-0.48086 0.04007-0.20035 0.04007-0.40071t0-0.40071q0-0.0801 0-0.32057 0-0.24043-0.04007-0.48086 0-0.28049 0-0.48085 0-0.24043 0-0.36064 0-0.40071 0-0.80143 0.04007-0.40071 0.08014-0.84149 0.04007-0.52093 0.04007-0.8415 0.04007-0.36064 0.04007-0.52092 0-0.44079-0.04007-0.92164t-0.04007-0.92164q0-0.16028 0-0.52092t-0.04007-0.72128q0-0.40072 0-0.76136t0-0.52092q0-0.16029 0-0.68121 0.04007-0.52093 0.04007-0.72128 0-0.0802-0.04007-0.32057 0-0.24043 0-0.52093t-0.04007-0.52093q0-0.24042 0-0.36064zm8.3348-6.8121q-0.12021 0-0.32057 0.0801t-0.40071 0.16029q-0.32057 0.16028-0.44078 0.28049-0.08014 0.12022-0.24043 0.44079-0.20036 0.52092-0.2805 0.72128-0.04007 0.20036-0.04007 0.561 0 0.12021 0 0.40071 0.04007 0.24043 0.04007 0.561 0 0.32056 0 0.60106 0.04007 0.2805 0.04007 0.40072 0 0.12021-0.04007 0.40071 0 0.24042 0 0.56099 0 0.2805-0.04007 0.561 0 0.24043 0 0.36064 0 0.12022 0 0.44079 0.04007 0.32056 0.04007 0.68121 0.04007 0.36064 0.04007 0.68121 0.04007 0.32057 0.04007 0.44078 0.04007 0.2805 0.12021 0.64114 0.12021 0.36064 0.60107 0.52092 0.16028 0.0801 0.64114 0.12022 0.48086 0 0.52093 0 0.12021 0 0.20036 0 0.12021 0 0.561-0.0801 0.2805-0.0802 0.40071-0.12022 0.16028-0.0401 0.52092-0.20035 0.16028-0.0802 0.2805-0.12022 0.12021-0.0401 0.2805-0.12021 0.12021-0.0801 0.24043-0.20036 0.12021-0.16028 0.2805-0.24042 0.12021-0.16029 0.24043-0.24043 0.16028-0.12022 0.2805-0.24043 0.2805-0.20036 0.44078-0.44078 0.16028-0.24043 0.64114-1.0819 0.20036-0.40072 0.48085-1.122 0.32057-0.72128 0.32057-1.8433 0-0.2805-0.12021-0.72129-0.08014-0.44078-0.32057-0.88156-0.24043-0.48086-0.68121-0.88157-0.44078-0.44078-1.0819-0.64114-0.64114-0.20035-0.88157-0.24042-0.24043-0.0401-0.68121-0.0401-0.04007 0-0.32057 0-0.24043-0.0401-0.561-0.0801-0.2805-0.0401-0.561-0.0401-0.24043-0.0401-0.24043-0.0401z" style="font-variant-caps:normal;font-variant-east-asian:normal;font-variant-ligatures:normal;font-variant-numeric:normal"/>
   <path d="m74.687 231.75q0.12021 0 0.64114-0.0401 0.52092-0.0401 0.68121-0.0401t0.68121 0q0.561-0.0401 0.76135-0.0401 0.12021 0 0.48085 0.0401 0.36064 0 0.76135 0.0401 0.40071 0 0.76135 0.0401 0.36064 0 0.52092 0 0.20036 0 0.80142-0.0401t0.80142-0.0401q0.72128 0 1.0419 0.36064 0.32057 0.36064 0.32057 0.96171 0 0.12021-0.04007 0.60106 0 0.48086 0 0.64114 0 0.12022 0 0.40072 0.04007 0.24042 0.04007 0.56099 0.04007 0.2805 0.04007 0.561 0.04007 0.24043 0.04007 0.36064 0 0.36064-0.08014 0.52093-0.04007 0.12021-0.36064 0.52092-0.16028 0.20036-0.24043 0.2805-0.04007 0.0401-0.2805 0.12021-0.24043 0.0802-0.44078 0.16029-0.20036 0.0401-0.52092 0.0401-0.16028 0-0.60107 0-0.44078-0.0401-0.60107-0.0401-0.08014 0-0.36064 0.0401-0.24043 0-0.52093 0-0.2805 0-0.561 0.0401-0.24043 0-0.36064 0-0.2805 0-0.44078-0.0401-0.2805 0-0.52093-0.0401t-0.52093-0.0801q-0.2805-0.0401-0.52092-0.0401-0.24043 0-0.52093 0-1.683 0-2.2841 0.36065-0.60107 0.36064-0.60107 1.6028 0 0.72128 0 1.2021 0.04007 0.48085 0.16028 0.80142t0.40071 0.52093q0.2805 0.16028 0.76135 0.24043 0.68121 0.0801 0.88157 0.12021 0.20036 0 0.60107 0 0.12021 0 0.40071 0 0.32057-0.0401 0.64114-0.0401 0.36064-0.0401 0.68121-0.0401 0.32057-0.0401 0.44078-0.0401 0.08014 0 0.32057 0.0401 0.2805 0 0.561 0.0401 0.32057 0.0401 0.561 0.0801 0.2805 0 0.40071 0 0.40071 0 0.80142-0.0401t0.80142-0.0401q0.24043 0 0.60107 0t0.52092 0.0801q0.08014 0.0801 0.40071 0.36064 0.32057 0.2805 0.32057 0.8415-0.04007 0.2805-0.04007 0.48085 0 0.20036-0.04007 0.40071 0 0.16029 0 0.24043-0.04007 0.48086-0.04007 0.72128 0 0.24043 0 0.88157 0 0.24043-0.04007 0.36064 0 0.12021-0.04007 0.44078-0.04007 0.20036-0.12021 0.44079-0.04007 0.24042-0.24043 0.48085-0.16028 0.20036-0.48085 0.36064-0.32057 0.16029-0.92164 0.16029h-2.0436q-0.12021 0-0.52093 0-0.40071-0.0401-0.52092-0.0401-0.08014 0-0.44078 0.0401-0.32057 0-0.40071 0-0.12021 0-0.64114-0.0401-0.48085-0.0801-0.64114-0.0801-0.32057 0-0.60107 0.0401t-0.60107 0.0401h-0.32057q-0.20036 0-0.48085 0.0802-0.24043 0.0401-0.36064 0.12021-0.2805 0.12021-0.44078 0.36064-0.12021 0.20036-0.20036 0.48086-0.04007 0.24042-0.08014 0.48085 0 0.24043 0 0.36064 0 0.96171 0.04007 1.6429 0.04007 0.64114 0.32057 1.0418 0.32057 0.40071 0.96171 0.60107 0.68121 0.16028 1.8833 0.16028 0.20036 0 0.80142 0 0.64114-0.0401 0.8415-0.0401 0.16028 0 0.64114 0.0401 0.52093 0 0.72128 0 0.12021 0 0.40071 0 0.32057 0 0.64114 0 0.36064-0.0401 0.64114-0.0401 0.32057-0.0401 0.44078-0.0401 0.20036-0.0401 0.40071-0.0401 0.24043 0 0.44078 0 0.16028 0 0.76135 0.12021 0.60107 0.12022 0.88157 0.64114 0.20036 0.44079 0.24043 0.92164 0.04007 0.48086 0.04007 0.76135v0.2805q0.04007 0.2805 0.08014 0.561 0.08014 0.2805 0.12021 0.561v1.0418q0 0.20035-0.04007 0.44078 0 0.20036-0.16028 0.40071-0.12021 0.20036-0.40071 0.36064-0.2805 0.12022-0.76135 0.12022-0.08014 0-0.2805-0.0401-0.16028 0-0.36064 0-0.20036-0.0401-0.44078-0.0401-0.20036 0-0.2805 0-0.08014 0-0.36064 0.0401-0.24043 0-0.561 0-0.32057 0.0401-0.60107 0.0401-0.24043 0.0401-0.36064 0.0401-0.08014 0-0.36064-0.0401-0.24043 0-0.561 0-0.32057-0.0401-0.60107-0.0401-0.24043 0-0.36064 0-0.04007 0-0.561 0-0.52093 0.0401-1.1621 0.0401-0.68121 0.0401-1.2823 0.0401-0.561 0.0401-0.72128 0.0401-0.20036 0-0.68121-0.0401-0.48086 0-1.0419-0.0401-0.561 0-1.0819-0.0401-0.48086 0-0.68121 0h-1.2823q-0.40071 0.0401-0.76135 0.0401t-0.52092 0q-0.16028 0-0.52093-0.0401-0.32057-0.0401-0.64114-0.32057-0.24043-0.20036-0.44078-0.64114-0.20036-0.44079-0.20036-0.88157 0-0.12021 0-0.52092 0.04007-0.44079 0.04007-0.561 0-0.36064-0.04007-0.68121-0.04007-0.36064-0.04007-0.72128v-0.72129q0-0.12021-0.04007-0.36064 0-0.24042 0-0.52092 0-0.32057-0.04007-0.561 0-0.24043 0-0.36064 0-0.52093 0-1.2021 0.04007-0.68121 0.04007-1.2021 0-0.12022 0-0.52093 0.04007-0.40071 0.04007-0.52092 0-0.0802 0-0.32057 0-0.24043-0.04007-0.48086 0-0.2805 0-0.52092 0-0.24043 0-0.36064 0-0.16029-0.04007-0.72128 0-0.561 0-0.76136v-2.7649q0-0.20036 0-0.32057 0-0.16028 0.04007-0.36064 0-0.12021 0.04007-0.52093 0.04007-0.44078 0.04007-0.56099 0-0.20036-0.08014-0.8415-0.04007-0.64114-0.04007-0.84149 0-0.48086 0.04007-0.92164 0.04007-0.48086 0.04007-0.92164 0-0.0801 0-0.36064 0.04007-0.32057 0.04007-0.64114 0-0.36064 0-0.64114 0.04007-0.32057 0.04007-0.40071 0-0.12021-0.04007-0.40071 0-0.2805-0.04007-0.60107 0-0.36064-0.04007-0.64114 0-0.2805 0-0.40071 0-0.92164 0.04007-1.2422 0.08014-0.32057 0.16028-0.44078 0.08014-0.20036 0.40071-0.60107 0.32057-0.40071 1.0018-0.40071 0.20036 0 0.76135 0.0401 0.561 0 0.76135 0 0.12021 0 0.44078 0 0.32057-0.0401 0.68121-0.0401 0.36064 0 0.68121 0 0.36064-0.0401 0.48085-0.0401 0.12021 0 0.40071 0.0401 0.2805 0 0.561 0 0.32057 0 0.60107 0.0401 0.2805 0 0.40071 0z" style="font-variant-caps:normal;font-variant-east-asian:normal;font-variant-ligatures:normal;font-variant-numeric:normal"/>
   <path d="m85.907 243.77q0-0.16029 0.04007-0.52093t0.08014-0.76135 0.08014-0.76135 0.08014-0.561q0.04007-0.20035 0.12021-0.60107 0.12021-0.40071 0.24043-0.84149 0.16028-0.44079 0.2805-0.8415 0.16028-0.40071 0.2805-0.60107 0.40071-0.72128 0.76135-1.2422 0.36064-0.561 0.76135-1.0418 0.40071-0.48086 0.88157-0.92164 0.52093-0.48086 1.0018-0.80143 0.48086-0.36064 0.80142-0.56099 0.36064-0.24043 0.48086-0.32057 0.2805-0.16029 0.64114-0.32057 0.40071-0.16029 0.68121-0.32057 0.44078-0.24043 0.88157-0.44078 0.48085-0.20036 0.92164-0.32057 0.04007 0 0.40071-0.0802 0.36064-0.0801 0.8415-0.16028 0.52092-0.0801 1.0819-0.12021 0.561-0.0801 1.0819-0.0801 0.20036 0 0.8415-0.0401 0.68121-0.0401 0.88156-0.0801 0.20036 0 0.40071 0.0401 0.20036 0 0.40072 0 0.16028 0 0.72128-0.0401 0.56099-0.0401 0.76135-0.0401 0.2805 0 0.96171 0.0401 0.68121 0 1.1621 0 0.88157 0.0401 1.4426 0.12021 0.60107 0.0401 1.0018 0.16029 0.44078 0.12021 0.72128 0.32057 0.32057 0.16028 0.68121 0.44078 0.44078 0.32057 0.60107 0.64114 0.20035 0.32057 0.20035 0.88157 0 0.16028-0.0401 0.68121 0 0.48085 0 0.68121v0.56099q0 0.20036 0.0401 0.76136 0.0401 0.56099 0.0401 0.76135 0 0.32057-0.24042 0.68121-0.24043 0.32057-0.80143 0.32057-0.0801 0-0.28049 0-0.20036-0.0401-0.44079-0.0401-0.20035-0.0401-0.40071-0.0801-0.16028-0.0401-0.20036-0.0401-0.20035-0.0401-0.36064-0.0801-0.16028-0.0401-0.36064-0.0801-0.20035-0.0401-0.44078-0.0401-0.20036 0-0.40071-0.0401-0.20036 0-0.44079-0.0401-0.24042-0.0401-0.48085-0.0802l-0.60107-0.12021q-0.24043-0.0401-0.48085-0.0801-0.24043-0.0801-0.48086-0.12022-0.24042-0.0401-0.44078-0.0401t-0.92164 0q-0.0801 0-0.48085 0-0.40071-0.0401-0.561-0.0401-0.12021 0-0.40071 0.0401-0.2805 0.0401-0.561 0.0802-0.2805 0.0401-0.52093 0.12021-0.24043 0.0401-0.2805 0.0401-0.20036 0.0401-0.44078 0.12021-0.20036 0.0401-0.40071 0.12022-0.20036 0.0801-0.40071 0.12021-0.16028 0-0.36064 0.0801-0.32057 0.0801-0.60107 0.24043-0.24043 0.16029-0.52093 0.36064-1.0419 0.68121-1.4025 1.122-0.36064 0.40071-0.60107 0.88156-0.16028 0.2805-0.2805 0.48086-0.08014 0.16028-0.16028 0.32057-0.04007 0.16028-0.12021 0.36064-0.04007 0.16028-0.12021 0.48085-0.08014 0.32057-0.16028 0.60107-0.04007 0.24043-0.08014 0.561 0 0.32057-0.04007 0.80142 0 0.44078 0 1.1621 0 0.24043 0.04007 0.40072 0.04007 0.16028 0.08014 0.32057 0.04007 0.12021 0.08014 0.28049 0.04007 0.16029 0.04007 0.32057 0 0.12022 0.08014 0.2805 0.04007 0.0802 0.04007 0.16029 0.04007 0.0801 0.08014 0.16028 0.08014 0.2805 0.12021 0.561 0.08014 0.2805 0.16028 0.52092 0.12021 0.24043 0.24043 0.48086 0.16028 0.20036 0.32057 0.40071 0.12021 0.20036 0.24043 0.32057 0.12021 0.12021 0.24043 0.2805 0.16028 0.16028 0.36064 0.40071 0.20036 0.20036 0.561 0.561 0.32057 0.36064 0.92164 0.72128 0.64114 0.36064 1.2823 0.68121 0.68121 0.32057 1.2021 0.561 0.52092 0.20035 0.64114 0.24042 0.04007 0 0.40071 0.0401 0.36064 0.0401 0.76135 0.0801 0.44079 0 0.80143 0.0401 0.36064 0 0.44078 0 0.16029 0 0.44078 0 0.2805-0.0401 0.561-0.12021 0.2805-0.12022 0.52093-0.32057 0.24042-0.20036 0.36064-0.52093 0.0801-0.24043 0.12021-0.80142 0.0801-0.60107 0.0801-0.80143 0-0.72128-0.0401-0.96171 0-0.2805-0.0801-0.60106-0.0801-0.36065-0.20036-0.60107-0.0801-0.24043-0.32057-0.36064-0.24042-0.16029-0.72128-0.24043-0.44078-0.0801-1.2422-0.0801-0.32057 0-0.60107-0.24043-0.24043-0.2805-0.24043-0.8415 0-0.16028 0-0.56099 0.0401-0.40071 0.0401-0.80143 0.0401-0.44078 0.0401-0.76135 0.0401-0.36064 0.0401-0.36064 0-0.0801-0.0401-0.44078 0-0.36064 0-0.44079 0-0.88156 0.40071-1.2422 0.44079-0.36064 0.76136-0.36064 0.12021 0 0.48085 0.0401 0.40071 0.0401 0.52093 0.0401h1.3224q0.16028 0 0.64114 0.0401 0.52092 0.0401 0.68121 0.0401 0.12021 0 0.44078 0 0.32057-0.0401 0.68121-0.0801 0.36064-0.0401 0.68121-0.0401 0.36064-0.0401 0.48086-0.0401 0.64113 0 1.2021 0.20035 0.60107 0.20036 0.8415 0.88157 0.0801 0.2805 0.0801 0.84149 0.0401 0.561 0.0401 1.6429 0 0.0801 0 0.32057 0 0.24043 0 0.52093 0.0401 0.24042 0.0401 0.48085 0 0.20036 0 0.32057 0 0.48086-0.0401 1.0018 0 0.48086 0 0.96171 0 0.12021 0 0.40071 0.0401 0.24043 0.0401 0.561 0 0.2805 0 0.561 0.0401 0.24042 0.0401 0.36064 0 0.2805-0.0401 0.56099 0 0.24043 0 0.48086 0 0.0801 0 0.44078 0.0401 0.32057 0.0401 0.40071 0 0.0802-0.0401 0.44079-0.0401 0.36064-0.0401 0.48085 0 0.0801 0 0.44078 0.0401 0.32057 0.0401 0.44079 0 0.0401-0.0401 0.44078 0 0.40071-0.0401 0.88157 0 0.48085-0.0401 0.92163 0 0.40072 0 0.48086-0.0401 0.68121-0.0801 1.0018-0.0401 0.32057-0.12022 0.561-0.20035 0.32057-0.64114 0.68121-0.44078 0.32057-0.88156 0.40071-0.0801 0-0.44079 0-0.36064 0.0401-0.84149 0.0401-0.48086 0.0401-0.96171 0.0401-0.48086 0-0.76135 0-0.0802 0-0.32057 0-0.24043 0-0.52093 0-0.24043 0-0.48085 0-0.24043 0-0.36064 0-0.16029 0-0.68121 0.0401-0.48086 0.0401-0.68122 0.0401h-0.0801q-0.0801 0-0.52092-0.0801-0.40072-0.0401-0.92164-0.12021-0.48086-0.0401-0.92164-0.0802-0.44078-0.0801-0.52092-0.0801-0.80142-0.16028-1.6028-0.40071-0.76135-0.24043-1.5628-0.561-0.32057-0.12021-0.60107-0.20035-0.2805-0.12022-0.60107-0.24043-0.08014-0.0401-0.561-0.32057-0.44078-0.32057-1.0419-0.68121-0.561-0.36064-1.0819-0.68121-0.52092-0.36064-0.68121-0.48085-0.08014-0.0401-0.2805-0.16029-0.16028-0.16028-0.36064-0.2805-0.20036-0.16028-0.36064-0.2805-0.16028-0.16028-0.16028-0.16028-0.08014-0.0401-0.36064-0.36064-0.2805-0.32057-0.60107-0.72128-0.32057-0.40072-0.64114-0.8415t-0.48085-0.76135q0-0.0401-0.20036-0.44078-0.20036-0.44079-0.44078-0.96171-0.24043-0.52093-0.48085-0.96171-0.20036-0.48086-0.24043-0.60107-0.24043-0.72128-0.32057-1.0018-0.04007-0.2805-0.12021-0.88157-0.08014-0.2805-0.16028-0.56099-0.04007-0.2805-0.08014-0.60107-0.08014-0.32057-0.08014-0.64114t0-0.64114q0-0.0801-0.04007-0.32057-0.04007-0.24043-0.08014-0.48085 0-0.2805-0.04007-0.52093 0-0.24043 0-0.36064z" style="font-variant-caps:normal;font-variant-east-asian:normal;font-variant-ligatures:normal;font-variant-numeric:normal"/>
   <path d="m114.08 241.48q0-0.12021 0-0.36064 0.0401-0.2805 0.0401-0.60107 0.0401-0.32057 0.0401-0.56099 0.0401-0.2805 0.0401-0.40072 0-0.44078-0.0401-0.88156-0.0401-0.48086-0.0401-0.92164 0-0.16029 0.0401-0.72128 0.0801-0.561 0.0801-0.72128 0-0.16029-0.0401-0.52093 0-0.40071-0.0401-0.84149-0.0401-0.44079-0.0802-0.80143 0-0.40071 0-0.561 0-0.52092 0.2805-1.0819 0.32057-0.60107 0.80143-0.68121 0.0801 0 0.36064 0.0401 0.2805 0 0.36064 0 0.16028 0 0.68121 0 0.56099-0.0401 0.72128-0.0401 0.40071 0 0.80142 0.0401 0.40072 0 0.80143 0 0.0801 0 0.40071 0 0.36064-0.0401 0.48085-0.0401 0.32057 0 0.48086 0.12022 0.16028 0.12021 0.32057 0.32056 0.24043 0.32057 0.36064 0.561 0.12021 0.20036 0.12021 0.68121 0 0.16029-0.0401 0.72128 0 0.52093 0 0.72129 0 0.16028 0 0.68121 0.0401 0.48085 0.0401 0.68121 0 0.12021-0.0401 0.40071 0 0.24043 0 0.56099 0 0.32057-0.0401 0.60107 0 0.2805 0 0.40071 0 0.68122 0.0401 1.4025t0.0401 1.4025q0 0.12021 0 0.36064t-0.0401 0.52093q0 0.28049 0 0.52092t0 0.36064v1.5227q0 0.0801 0 0.36064 0 0.24043-0.0401 0.52092 0 0.2805 0 0.52093t0 0.36064 0 0.48085q0.0401 0.36065 0.0401 0.76136 0 0.36064 0 0.72128 0.0401 0.36064 0.0401 0.52092 0 0.12022 0 0.52093t-0.0401 0.88157q0 0.44078 0 0.84149 0 0.36064 0 0.48086-0.0401 0.28049-0.0801 0.56099 0 0.24043 0 0.52093 0 0.0801 0 0.32057 0.0401 0.24043 0.0401 0.52092 0 0.2805 0 0.52093 0.0401 0.24043 0.0401 0.36064v3.2858q0 0.16028 0.0401 0.68121 0.0801 0.52093 0.0801 0.72128 0 0.561-0.40071 0.88157-0.40071 0.2805-0.84149 0.2805-0.0801 0-0.48086-0.0401-0.40071-0.0401-0.52092-0.0401-0.20036 0-0.80143 0.0401-0.60106 0.0401-0.80142 0.0401-0.12021 0-0.561-0.0401-0.40071-0.0401-0.52092-0.0401-0.0802 0-0.44079 0.0401-0.36064 0.0401-0.44078 0.0401-0.64114 0-0.96171-0.36064-0.2805-0.40072-0.32057-0.64114-0.0401-0.0802-0.0401-0.44079 0-0.40071 0-0.44078 0-0.32057 0-0.561 0.0401-0.2805 0.0801-0.56099 0.0401-0.40072 0.0401-0.76136 0.0401-0.40071 0.0401-0.80142 0-0.24043-0.0401-0.88157 0-0.64114 0-1.3624 0-0.76135-0.0401-1.4025 0-0.68121 0-0.96171 0-0.0801 0.0401-0.32057 0.0401-0.2805 0.0401-0.36064 0-0.12021-0.0802-0.48085-0.0401-0.40072-0.0401-0.52093 0-0.16028 0-0.60107 0.0401-0.44078 0.0801-0.96171 0.0401-0.52092 0.0401-0.96171 0.0401-0.48085 0.0401-0.68121 0-0.72128-0.0802-1.4025-0.0401-0.72128-0.0401-1.4025z" style="font-variant-caps:normal;font-variant-east-asian:normal;font-variant-ligatures:normal;font-variant-numeric:normal"/>
   <path d="m138.84 235.47q0 0.12021 0 0.561 0.0401 0.44078 0.0401 0.56099 0 0.2805-0.0802 0.561-0.0801 0.2805-0.40071 0.48086-0.16028 0.12021-0.48085 0.24042-0.32057 0.0802-0.64114 0.0802-0.12022 0-0.24043 0-0.0801-0.0401-0.48085-0.16029-0.16029-0.0401-0.60107-0.0801-0.44078-0.0401-0.92164-0.0801-0.48085-0.0401-0.88157-0.0802-0.40071-0.0401-0.40071-0.0401-0.2805 0-0.56099 0.0801-0.2805 0.0802-0.72129 0.32057-0.24042 0.12022-0.56099 0.44079-0.2805 0.2805-0.2805 1.0018 0 0.44078 0.24043 0.96171 0.28049 0.52092 0.56099 0.84149 0.16029 0.12021 0.52093 0.40071 0.36064 0.24043 0.76135 0.561 0.40071 0.2805 0.68121 0.52093 0.32057 0.24042 0.32057 0.24042 0.12022 0.0802 0.20036 0.24043 0.12021 0.12021 0.24042 0.20036 0.0801 0.0801 0.20036 0.12021 0.12021 0.0401 0.24043 0.12021 0.0801 0.0802 0.40071 0.44079 0.36064 0.32057 0.44078 0.44078 0.24043 0.20036 0.48086 0.40071 0.2805 0.20036 0.52092 0.44079 0.68121 0.68121 0.88157 0.92163 0.20036 0.20036 0.40071 0.52093 0.2805 0.48085 0.52093 0.96171 0.2805 0.48085 0.44078 1.0418 0.20036 0.561 0.2805 1.2823 0.12021 0.72128 0.12021 1.7231 0 0.76135-0.0401 1.3224-0.0401 0.56099-0.24043 1.0018 0 0.0401-0.12021 0.32057-0.12021 0.2805-0.2805 0.60107-0.12021 0.32057-0.24043 0.60106-0.12021 0.2805-0.12021 0.2805-0.12021 0.20036-0.40071 0.561t-0.48086 0.60107q-0.56099 0.68121-1.2422 1.2422-0.64114 0.52093-0.72128 0.561 0 0-0.36064 0.20036-0.36065 0.16028-0.88157 0.40071-0.48086 0.20036-1.0418 0.40071-0.52093 0.20036-0.88157 0.2805-0.12021 0-0.48085 0-0.32057 0.0401-0.72129 0.0401-0.36064 0.0401-0.72128 0.0401-0.36064 0.0401-0.48085 0.0401-0.20036 0-0.36064 0-0.16029 0.0401-0.32057 0.0401-0.12022 0-0.40071-0.0401-0.2805 0-0.60107-0.0401t-0.60107-0.0801q-0.2805-0.0401-0.40071-0.0401-0.92164-0.0801-1.4426-0.16029-0.52093-0.0801-1.122-0.40071-0.44078-0.24043-0.561-0.44078-0.12021-0.20036-0.12021-0.48086 0-0.12021 0-0.56099 0.0401-0.44079 0.0401-0.561 0-0.2805-0.0401-0.52093 0-0.24042 0-0.48085 0-0.0801 0-0.32057 0.0401-0.24043 0.0401-0.48085 0.0401-0.2805 0.0401-0.48086 0.0401-0.24043 0.0401-0.36064 0-0.0801-0.0401-0.44078-0.0401-0.36064-0.0401-0.48086 0-0.68121 0.60107-0.80142t1.3624-0.12021q0.2805 0 0.68121 0.0401t0.96171 0.24042q0.16029 0.0802 0.2805 0.12022 0.16028 0.0401 0.36064 0.0801 0 0 0.24043 0 0.2805 0 0.60106 0.0401 0.32057 0 0.60107 0t0.36064 0q0.16029 0 0.52093-0.0401 0.40071-0.0401 0.80142-0.24043 0.40072-0.20035 0.68121-0.60107 0.2805-0.44078 0.2805-1.2422 0-0.32057-0.0801-0.52093-0.0401-0.20035-0.12021-0.48085-0.20036-0.44079-0.40072-0.68121-0.16028-0.24043-0.68121-0.64114-0.0801-0.0801-0.44078-0.40071-0.36064-0.36064-0.48085-0.44079-0.0802-0.0801-0.52093-0.32057-0.40071-0.2805-0.52093-0.36064-0.16028-0.12021-0.56099-0.44078-0.36064-0.32057-0.80143-0.68121-0.40071-0.40071-0.76135-0.72128-0.36064-0.36064-0.52092-0.52093-0.2805-0.20035-0.60107-0.52092-0.2805-0.32057-0.52093-0.72129-0.56099-0.80142-0.72128-1.2422-0.16028-0.44079-0.32057-1.0018-0.16028-0.52093-0.24043-0.88157-0.0801-0.36064-0.16028-0.64114-0.0401-0.32057-0.0801-0.60107 0-0.2805 0-0.64114 0-0.64114 0-1.0418 0.0401-0.40071 0.0801-0.68121 0.0401-0.2805 0.12021-0.48085 0.0801-0.24043 0.16029-0.48086 0.20035-0.56099 0.56099-1.3224 0.40072-0.76135 1.2422-1.4826 0.48086-0.40071 1.0819-0.72128 0.60107-0.32057 1.1621-0.52093 0.60107-0.20035 1.0418-0.32057 0.48085-0.12021 0.68121-0.16028 0.0801 0 0.44078-0.0401 0.40072-0.0802 0.88157-0.12022 0.48085-0.0401 0.96171-0.0801 0.52092-0.0401 0.88157-0.0401 1.122 0 2.3241 0.20036 1.2021 0.20035 1.683 0.36064 0.56099 0.20035 0.72128 0.36064 0.20035 0.12021 0.2805 0.44078 0.0401 0.0801 0 0.44078-0.0401 0.36064-0.0401 0.48086 0 0.0801 0 0.48085 0.0401 0.36064 0.0401 0.44079z" style="font-variant-caps:normal;font-variant-east-asian:normal;font-variant-ligatures:normal;font-variant-numeric:normal"/>
   <path d="m140.28 233.99q-0.0401-0.0802-0.0401-0.44079 0.0401-0.40071 0.0401-0.52092 0-0.80143 0.52092-1.0418 0.561-0.24043 1.122-0.24043 0.12021 0 0.36064 0.0401 0.2805 0 0.60107 0t0.56099 0.0401q0.2805 0 0.40071 0 0.12022 0 0.44079 0t0.68121 0q0.40071-0.0401 0.72128-0.0401 0.36064 0 0.48085 0 0.12022 0 0.40072 0.0401 0.28049 0 0.60106 0 0.36064 0 0.68121 0.0401 0.32057 0 0.44079 0 0.12021 0 0.36064 0 0.2805-0.0401 0.60107-0.0401t0.56099 0q0.2805-0.0401 0.40072-0.0401 0.12021 0 0.48085 0.0401 0.36064 0 0.44078 0 0.12022 0 0.48086-0.0401 0.40071-0.0401 0.52092-0.0401 0.0802 0 0.36064 0.0401 0.32057 0 0.40072 0 0.0801 0 0.48085 0 0.40071-0.0401 0.52093-0.0401 0.12021 0 0.52092 0.0401 0.44078 0.0401 0.561 0.0401 0.0801 0 0.40071 0 0.36064-0.0401 0.44078-0.0401 0.20036 0 0.76136 0.0801 0.60106 0.0401 0.80142 0.0401 0.12021 0 0.561-0.0401 0.48085-0.0801 0.64114-0.0801 0.16028 0 0.28049 0.0401 0.12022 0 0.32057 0.0801 0.24043 0.0802 0.40072 0.20036 0.20035 0.0801 0.32057 0.48085 0.0801 0.20036 0.0801 0.44079 0 0.20035 0 1.0418 0 0.0801 0 0.32057 0 0.20035 0 0.48085 0.0401 0.24043 0.0401 0.48086 0 0.20035 0 0.32057v0.56099q0 0.0802 0 0.32057 0.0401 0.24043 0.0401 0.32057 0 0.52093-0.36064 0.88157-0.36064 0.32057-0.88157 0.44078-0.20035 0.0401-0.40071 0.0401-0.20035 0-0.92164 0-1.2823 0-1.9234 0.0801t-1.0819 0.48085q-0.0401 0.0401-0.28049 0.36064-0.24043 0.2805-0.32057 0.40071 0 0.0801-0.0802 0.64114-0.0401 0.561-0.0801 0.76136 0 0.12021-0.0401 0.52092 0 0.36064-0.0401 0.80143 0 0.40071-0.0401 0.80142 0 0.36064 0 0.48085 0 0.12022 0.0401 0.64114 0.0401 0.48086 0.0401 0.64114 0 0.12022-0.0401 0.60107-0.0401 0.44078-0.0401 0.60107 0 0.32057 0.0401 1.0018t0.0801 1.3224v1.2021q0 0.16029 0.0401 0.68121 0.0401 0.48086 0.0401 0.68121 0 0.44079-0.0801 0.92164-0.0401 0.48086-0.0401 0.96171 0 0.0801 0 0.32057 0.0401 0.24043 0.0401 0.52093 0.0401 0.28049 0.0401 0.52092 0.0401 0.24043 0.0401 0.36064v1.683q0 0.12022-0.0401 0.561t-0.0401 0.561q0 0.16028 0.0401 0.68121 0.0401 0.48085 0.0401 0.64114 0 0.60106-0.52092 0.96171-0.48086 0.32056-1.3624 0.32056h-1.122q-0.0801 0-0.48085 0.0401-0.40071 0-0.52093 0-0.12021 0-0.56099-0.0401-0.40072-0.0801-0.52093-0.0801-0.0801 0-0.40071 0.0401-0.32057 0.0401-0.40071 0.0401-0.52093 0-0.72128-0.32056-0.16029-0.32057-0.24043-0.64114-0.0801-0.2805-0.12022-0.36064 0-0.12022 0.0401-0.44079v-0.48085q0-0.36064 0.0401-0.68121 0.0401-0.36064 0.0401-0.72128v-3.5663q0-0.12022-0.0401-0.48086 0-0.36064 0-0.72128 0-0.40071-0.0401-0.76135 0-0.36064 0-0.52093 0-0.0801 0-0.32057 0.0401-0.24042 0.0401-0.48085 0.0401-0.2805 0.0401-0.52093 0.0401-0.24042 0.0401-0.36064 0-0.28049-0.0401-0.52092 0-0.24043 0-0.52093 0-0.16028 0.0401-0.64114 0.0801-0.48085 0.0801-0.64114 0-0.12021-0.0401-0.36064 0-0.2805-0.0401-0.56099 0-0.32057-0.0401-0.561 0-0.2805 0-0.40071 0-0.12022 0-0.40071 0-0.32057 0-0.68121 0.0401-0.36065 0.0401-0.68122 0-0.32056 0-0.44078 0-0.16028-0.0401-0.76135t-0.0401-0.80143q0-0.0801 0-0.24042 0.0401-0.20036 0.0401-0.2805 0-0.0401-0.0401-0.24043 0-0.20035-0.0802-0.44078-0.0801-0.24043-0.24042-0.48086-0.16029-0.28049-0.48086-0.48085-0.44078-0.2805-1.1621-0.32057-0.68121-0.0801-1.6429-0.0801-0.20036 0-0.40071 0-0.20036 0-0.40072 0.0401-0.40071 0.0801-0.68121 0.0801-0.44078 0-1.0418-0.40071-0.56099-0.44078-0.56099-1.1621 0 0 0-0.24042 0-0.2805 0-0.60107 0.0401-0.32057 0.0401-0.60107t0-0.40071z" style="font-variant-caps:normal;font-variant-east-asian:normal;font-variant-ligatures:normal;font-variant-numeric:normal"/>
   <path d="m170.74 231.75q0.12022 0 0.64114-0.0401 0.52093-0.0401 0.68121-0.0401 0.16029 0 0.68121 0 0.561-0.0401 0.76136-0.0401 0.12021 0 0.48085 0.0401 0.36064 0 0.76135 0.0401 0.40071 0 0.76136 0.0401 0.36064 0 0.52092 0 0.20036 0 0.80142-0.0401 0.60107-0.0401 0.80143-0.0401 0.72128 0 1.0418 0.36064t0.32057 0.96171q0 0.12021-0.0401 0.60106 0 0.48086 0 0.64114 0 0.12022 0 0.40072 0.0401 0.24042 0.0401 0.56099 0.0401 0.2805 0.0401 0.561 0.0401 0.24043 0.0401 0.36064 0 0.36064-0.0801 0.52093-0.0401 0.12021-0.36064 0.52092-0.16029 0.20036-0.24043 0.2805-0.0401 0.0401-0.2805 0.12021-0.24042 0.0802-0.44078 0.16029-0.20036 0.0401-0.52093 0.0401-0.16028 0-0.60106 0-0.44079-0.0401-0.60107-0.0401-0.0801 0-0.36064 0.0401-0.24043 0-0.52093 0t-0.56099 0.0401q-0.24043 0-0.36065 0-0.28049 0-0.44078-0.0401-0.2805 0-0.52092-0.0401-0.24043-0.0401-0.52093-0.0801-0.2805-0.0401-0.52093-0.0401-0.24042 0-0.52092 0-1.683 0-2.2841 0.36065-0.60107 0.36064-0.60107 1.6028 0 0.72128 0 1.2021 0.0401 0.48085 0.16029 0.80142 0.12021 0.32057 0.40071 0.52093 0.2805 0.16028 0.76135 0.24043 0.68121 0.0801 0.88157 0.12021 0.20035 0 0.60107 0 0.12021 0 0.40071 0 0.32057-0.0401 0.64114-0.0401 0.36064-0.0401 0.68121-0.0401 0.32057-0.0401 0.44078-0.0401 0.0801 0 0.32057 0.0401 0.2805 0 0.561 0.0401 0.32057 0.0401 0.56099 0.0801 0.2805 0 0.40072 0 0.40071 0 0.80142-0.0401t0.80142-0.0401q0.24043 0 0.60107 0t0.52093 0.0801q0.0801 0.0801 0.40071 0.36064 0.32057 0.2805 0.32057 0.8415-0.0401 0.2805-0.0401 0.48085 0 0.20036-0.0401 0.40071 0 0.16029 0 0.24043-0.0401 0.48086-0.0401 0.72128 0 0.24043 0 0.88157 0 0.24043-0.0401 0.36064 0 0.12021-0.0401 0.44078-0.0401 0.20036-0.12021 0.44079-0.0401 0.24042-0.24043 0.48085-0.16028 0.20036-0.48085 0.36064-0.32057 0.16029-0.92164 0.16029h-2.0436q-0.12021 0-0.52093 0-0.40071-0.0401-0.52092-0.0401-0.0801 0-0.44078 0.0401-0.32057 0-0.40072 0-0.12021 0-0.64114-0.0401-0.48085-0.0801-0.64114-0.0801-0.32056 0-0.60106 0.0401t-0.60107 0.0401h-0.32057q-0.20036 0-0.48086 0.0802-0.24042 0.0401-0.36064 0.12021-0.28049 0.12021-0.44078 0.36064-0.12021 0.20036-0.20036 0.48086-0.0401 0.24042-0.0801 0.48085 0 0.24043 0 0.36064 0 0.96171 0.0401 1.6429 0.0401 0.64114 0.32057 1.0418 0.32057 0.40071 0.96171 0.60107 0.68121 0.16028 1.8834 0.16028 0.20035 0 0.80142 0 0.64114-0.0401 0.8415-0.0401 0.16028 0 0.64114 0.0401 0.52092 0 0.72128 0 0.12021 0 0.40071 0 0.32057 0 0.64114 0 0.36064-0.0401 0.64114-0.0401 0.32057-0.0401 0.44078-0.0401 0.20036-0.0401 0.40071-0.0401 0.24043 0 0.44079 0 0.16028 0 0.76135 0.12021 0.60107 0.12022 0.88157 0.64114 0.20035 0.44079 0.24042 0.92164 0.0401 0.48086 0.0401 0.76135v0.2805q0.0401 0.2805 0.0802 0.561 0.0801 0.2805 0.12021 0.561v1.0418q0 0.20035-0.0401 0.44078 0 0.20036-0.16029 0.40071-0.12021 0.20036-0.40071 0.36064-0.2805 0.12022-0.76135 0.12022-0.0801 0-0.2805-0.0401-0.16028 0-0.36064 0-0.20036-0.0401-0.44078-0.0401-0.20036 0-0.2805 0-0.0801 0-0.36064 0.0401-0.24043 0-0.561 0-0.32057 0.0401-0.60107 0.0401-0.24042 0.0401-0.36064 0.0401-0.0801 0-0.36064-0.0401-0.24043 0-0.56099 0-0.32057-0.0401-0.60107-0.0401-0.24043 0-0.36064 0-0.0401 0-0.561 0-0.52093 0.0401-1.1621 0.0401-0.68121 0.0401-1.2823 0.0401-0.561 0.0401-0.72129 0.0401-0.20035 0-0.68121-0.0401-0.48085 0-1.0418-0.0401-0.56099 0-1.0819-0.0401-0.48085 0-0.68121 0h-1.2823q-0.40071 0.0401-0.76135 0.0401t-0.52093 0q-0.16028 0-0.52092-0.0401-0.32057-0.0401-0.64114-0.32057-0.24043-0.20036-0.44078-0.64114-0.20036-0.44079-0.20036-0.88157 0-0.12021 0-0.52092 0.0401-0.44079 0.0401-0.561 0-0.36064-0.0401-0.68121-0.0401-0.36064-0.0401-0.72128v-0.72129q0-0.12021-0.0401-0.36064 0-0.24042 0-0.52092 0-0.32057-0.0401-0.561 0-0.24043 0-0.36064 0-0.52093 0-1.2021 0.0401-0.68121 0.0401-1.2021 0-0.12022 0-0.52093 0.0401-0.40071 0.0401-0.52092 0-0.0802 0-0.32057 0-0.24043-0.0401-0.48086 0-0.2805 0-0.52092 0-0.24043 0-0.36064 0-0.16029-0.0401-0.72128 0-0.561 0-0.76136v-2.7649q0-0.20036 0-0.32057 0-0.16028 0.0401-0.36064 0-0.12021 0.0401-0.52093 0.0401-0.44078 0.0401-0.56099 0-0.20036-0.0801-0.8415-0.0401-0.64114-0.0401-0.84149 0-0.48086 0.0401-0.92164 0.0401-0.48086 0.0401-0.92164 0-0.0801 0-0.36064 0.0401-0.32057 0.0401-0.64114 0-0.36064 0-0.64114 0.0401-0.32057 0.0401-0.40071 0-0.12021-0.0401-0.40071 0-0.2805-0.0401-0.60107 0-0.36064-0.0401-0.64114 0-0.2805 0-0.40071 0-0.92164 0.0401-1.2422 0.0801-0.32057 0.16028-0.44078 0.0802-0.20036 0.40071-0.60107 0.32057-0.40071 1.0018-0.40071 0.20036 0 0.76136 0.0401 0.56099 0 0.76135 0 0.12021 0 0.44078 0 0.32057-0.0401 0.68121-0.0401t0.68121 0q0.36065-0.0401 0.48086-0.0401t0.40071 0.0401q0.2805 0 0.561 0 0.32057 0 0.60107 0.0401 0.28049 0 0.40071 0z" style="font-variant-caps:normal;font-variant-east-asian:normal;font-variant-ligatures:normal;font-variant-numeric:normal"/>
   <path d="m182.6 244.57q0-0.36064 0-0.76135 0-0.44078 0.0401-0.84149 0-1.0018 0.0802-1.9635 0.0801-0.96171 0.12021-1.9635 0-0.16029 0-0.64114 0-0.48086-0.0401-1.0018 0-0.52093 0-0.96171 0-0.48085 0-0.68121t-0.0401-0.80142q-0.0401-0.60107-0.0401-0.80143 0-0.40071 0-0.84149 0.0401-0.48086 0.20035-0.8415 0.16029-0.40071 0.48086-0.64114 0.36064-0.24043 0.96171-0.24043 0.12021 0 0.52092 0.0401t0.52093 0.0401q0.12021 0 0.52092 0 0.44079-0.0401 0.561-0.0401 0.0801 0 0.32057 0 0.24043 0 0.52093 0.0401 0.28049 0 0.52092 0t0.36064 0h1.3224q0.16029 0 0.68121 0 0.561-0.0401 0.76135-0.0401 0.32057 0 0.76136 0 0.48085-0.0401 0.80142-0.0401 0.12022 0 0.48086 0.0401 0.36064 0 0.76135 0.0401 0.40071 0 0.76135 0.0401 0.36064 0 0.48086 0.0401 0.12021 0 0.40071 0.0801t0.60107 0.16029q0.32057 0.0801 0.60106 0.16028 0.2805 0.0801 0.44079 0.12021 0.12021 0.0802 0.40071 0.20036 0.2805 0.12021 0.60107 0.2805 0.32057 0.16028 0.56099 0.2805 0.2805 0.12021 0.32057 0.12021 0.48086 0.2805 0.96171 0.68121 0.52093 0.40071 0.72128 0.60107 0.0401 0.0401 0.20036 0.32057 0.20036 0.24043 0.40071 0.561 0.24043 0.28049 0.40071 0.56099 0.20036 0.24043 0.24043 0.2805 0.0401 0.0801 0.20036 0.40071 0.16028 0.32057 0.32057 0.76136 0.16028 0.44078 0.2805 0.9617 0.16028 0.52093 0.16028 0.96171 0 0.0802-0.0401 0.44079 0 0.36064 0 0.44078 0 0.20036 0.0401 0.80142 0.0401 0.60107 0.0401 0.80143 0 0.32057-0.0801 0.88156-0.0801 0.52093-0.24043 1.122-0.12021 0.60107-0.32057 1.1621-0.16028 0.561-0.36064 0.96171-0.12021 0.24043-0.36064 0.561t-0.52092 0.64114q-0.24043 0.32057-0.48086 0.64114-0.24043 0.2805-0.40071 0.44078-0.52093 0.561-0.8415 0.92164-0.32057 0.32057-0.48085 0.52092-0.16029 0.20036-0.20036 0.36064-0.0401 0.16029-0.0401 0.36065 0 0.44078 0.20036 0.68121 0.24043 0.24042 0.52092 0.44078 0.64114 0.48085 1.3224 0.84149 0.68121 0.32057 0.88157 0.40072 0.20036 0.0801 0.32057 0.12021 0.16028 0 0.36064 0.0801 0.44078 0.2805 0.52093 0.64114 0.0801 0.36064 0.0801 0.561 0 0.20035-0.0401 0.44078 0 0.24043 0 0.44078 0 0.12022 0.0401 0.52093t0.0401 0.52093q0 0.0801-0.0401 0.36064 0 0.24042-0.0401 0.52092 0 0.2805-0.0401 0.52093 0 0.24043 0 0.36064 0 0.0801 0 0.44078 0.0401 0.32057 0.0401 0.40071 0 0.48086-0.24043 0.76136-0.24043 0.24042-0.561 0.40071-0.2805 0.16028-0.56099 0.20035-0.24043 0.0401-0.32057 0.0401-0.64114 0-1.2422-0.20036t-1.122-0.44078q-0.48086-0.2805-0.80143-0.52093-0.32057-0.2805-0.44078-0.36064-0.44078-0.36064-1.2422-1.0418-0.76135-0.72128-1.3224-1.4025-0.0801-0.12022-0.20035-0.24043-0.12022-0.16028-0.24043-0.24043-0.32057-0.2805-0.76135-0.52092-0.0802-0.0802-0.44079-0.36064-0.36064-0.2805-0.44078-0.36064-0.80143-0.52093-1.2021-0.60107-0.36064-0.12022-0.80142-0.12022-0.16029 0-0.36064 0.0802-0.16029 0.0801-0.24043 0.12021-0.2805 0.20036-0.40071 0.36064-0.0801 0.16029-0.20036 0.44078-0.20035 0.40072-0.24042 0.68121-0.0401 0.24043-0.0401 1.0819 0 0.20035 0 0.40071 0.0401 0.16028 0.12022 0.80142 0.0401 0.12022 0.12021 0.64114 0.0801 0.48086 0.0801 0.64114 0 0.561-0.36064 0.8415-0.32057 0.28049-0.72128 0.28049-0.20035 0-0.44078-0.0401-0.20036-0.0401-0.40071-0.0801-0.20036-0.0401-0.40072-0.0401-0.20035-0.0401-0.40071-0.0401-0.0401 0-0.40071 0.0401-0.36064 0-0.44078 0-0.20036 0.0401-0.40071 0.0401-0.20036 0-0.52093 0-0.16029 0-0.72128 0.0401-0.561 0-0.72128 0-0.36064 0-0.60107-0.16028-0.24043-0.16029-0.40071-0.36064-0.12022-0.24043-0.16029-0.48086-0.0401-0.24042-0.0401-0.40071 0-0.24043 0.0401-0.48085 0.0401-0.24043 0.0801-0.48086 0.0401-0.20035 0.0401-0.40071t0-0.40071q0-0.0801 0-0.32057 0-0.24043-0.0401-0.48086 0-0.28049 0-0.48085 0-0.24043 0-0.36064 0-0.40071 0-0.80143 0.0401-0.40071 0.0802-0.84149 0.0401-0.52093 0.0401-0.8415 0.0401-0.36064 0.0401-0.52092 0-0.44079-0.0401-0.92164t-0.0401-0.92164q0-0.16028 0-0.52092t-0.0401-0.72128q0-0.40072 0-0.76136t0-0.52092q0-0.16029 0-0.68121 0.0401-0.52093 0.0401-0.72128 0-0.0802-0.0401-0.32057 0-0.24043 0-0.52093t-0.0401-0.52093q0-0.24042 0-0.36064zm8.3348-6.8121q-0.12021 0-0.32057 0.0801-0.20035 0.0801-0.40071 0.16029-0.32057 0.16028-0.44078 0.28049-0.0801 0.12022-0.24043 0.44079-0.20035 0.52092-0.2805 0.72128-0.0401 0.20036-0.0401 0.561 0 0.12021 0 0.40071 0.0401 0.24043 0.0401 0.561 0 0.32056 0 0.60106 0.0401 0.2805 0.0401 0.40072 0 0.12021-0.0401 0.40071 0 0.24042 0 0.56099 0 0.2805-0.0401 0.561 0 0.24043 0 0.36064 0 0.12022 0 0.44079 0.0401 0.32056 0.0401 0.68121 0.0401 0.36064 0.0401 0.68121 0.0401 0.32057 0.0401 0.44078 0.0401 0.2805 0.12021 0.64114 0.12021 0.36064 0.60107 0.52092 0.16028 0.0801 0.64114 0.12022 0.48085 0 0.52092 0 0.12022 0 0.20036 0 0.12021 0 0.56099-0.0801 0.2805-0.0802 0.40072-0.12022 0.16028-0.0401 0.52092-0.20035 0.16029-0.0802 0.2805-0.12022 0.12021-0.0401 0.2805-0.12021 0.12021-0.0801 0.24043-0.20036 0.12021-0.16028 0.28049-0.24042 0.12022-0.16029 0.24043-0.24043 0.16029-0.12022 0.2805-0.24043 0.2805-0.20036 0.44078-0.44078 0.16029-0.24043 0.64114-1.0819 0.20036-0.40072 0.48086-1.122 0.32057-0.72128 0.32057-1.8433 0-0.2805-0.12022-0.72129-0.0801-0.44078-0.32057-0.88156-0.24042-0.48086-0.68121-0.88157-0.44078-0.44078-1.0819-0.64114-0.64114-0.20035-0.88157-0.24042-0.24042-0.0401-0.68121-0.0401-0.0401 0-0.32057 0-0.24042-0.0401-0.56099-0.0801-0.2805-0.0401-0.561-0.0401-0.24043-0.0401-0.24043-0.0401z" style="font-variant-caps:normal;font-variant-east-asian:normal;font-variant-ligatures:normal;font-variant-numeric:normal"/>
  </g>
  <path transform="matrix(.26458 0 0 .26458 40.217 48.767)" d="m80 127.68c-26.472 0-48 21.528-48 48 0 14.368 6.3762 27.249 16.408 36.049-28.128 9.8-48.408 36.519-48.408 67.951v24c0 17.648 14.352 32 32 32v84c0 4.312 1.0646 8.352 2.8086 12h-34.809v64h34.801c-1.776 5.016-2.8008 10.384-2.8008 16 0 14.368 6.3762 27.249 16.408 36.049-28.128 9.8-48.408 36.519-48.408 67.951v8h144 16 128 16 144v-8c0-31.432-20.28-58.151-48.408-67.951 10.032-8.8 16.408-21.681 16.408-36.049 0-5.616-1.0248-10.984-2.8008-16h82.801v-64h-51.473l-38.398-64h89.871v-112.32h-0.00391c-5.4159 0-10.754-0.34298-15.996-1.0039v97.324h-304v-96h24c10.416 0 19.215-6.712 22.527-16h97.473v-80h-128v48h-16v-64h193.32c-0.66093-5.2423-1.0039-10.58-1.0039-15.996v-0.00391h-208.32v80h-44.32c7.632-8.504 12.32-19.696 12.32-32 0-26.472-21.528-48-48-48zm0 16c17.648 0 32 14.352 32 32 0 17.648-14.352 32-32 32-17.648 0-32-14.352-32-32 0-17.648 14.352-32 32-32zm256 16v16h16v-16h-16zm32 0v16h9.7246c-2.1131-5.1754-3.9009-10.516-5.3262-16h-4.3984zm-160 16h96v48h-81.473c-2.416-6.776-7.7513-12.111-14.527-14.527v-33.473zm128 16v16h60.639c-4.0648-5.0354-7.7583-10.382-11.033-16h-49.605zm-264 32h128c4.408 0 8 3.592 8 8 0 4.408-3.592 8-8 8h-88v180c0 6.616-5.384 12-12 12-6.616 0-12-5.384-12-12v-108h-16v108c0 6.616-5.384 12-12 12s-12-5.384-12-12v-140h-16v40c-8.824 0-16-7.176-16-16v-24c0-30.88 25.12-56 56-56zm344 16v80h-16v-32h-16v32h-16v-48h-16v48h-16v-16h-16v16h-16v-64h-16v64h-16v16h192v-84.398c-5.484-1.4253-10.825-3.213-16-5.3262v73.725h-16v-80h-16zm-288 16h32v112h89.871l-38.398 64h-86.281c1.744-3.648 2.8086-7.688 2.8086-12v-164zm64 32v16h16v-16h-16zm0 32v16h16v-16h-16zm76.527 48h21.344l-38.398 64h-21.344l38.398-64zm51.473 0h16v64h-16v-64zm46.129 0h21.344l38.398 64h-21.344l-38.398-64zm-62.129 7.5527v56.447h-33.871l33.871-56.447zm48 0 33.871 56.447h-33.871v-56.447zm-336 72.447h464v32h-76.32c-8.792-9.792-21.504-16-35.68-16-14.176 0-26.88 6.208-35.68 16h-72.641c-8.792-9.792-21.504-16-35.68-16-14.176 0-26.88 6.208-35.68 16h-72.641c-8.792-9.792-21.504-16-35.68-16-14.176 0-26.88 6.208-35.68 16h-28.32v-32zm64 32c17.648 0 32 14.352 32 32 0 17.648-14.352 32-32 32-17.648 0-32-14.352-32-32 0-17.648 14.352-32 32-32zm144 0c17.648 0 32 14.352 32 32 0 17.648-14.352 32-32 32s-32-14.352-32-32c0-17.648 14.352-32 32-32zm144 0c17.648 0 32 14.352 32 32 0 17.648-14.352 32-32 32-17.648 0-32-14.352-32-32 0-17.648 14.352-32 32-32zm-242.8 16h53.602c-1.776 5.016-2.8008 10.384-2.8008 16 0 14.368 6.3762 27.249 16.408 36.049-17.544 6.112-32 18.783-40.408 35.111-8.416-16.328-22.872-28.999-40.408-35.111 10.032-8.8 16.408-21.681 16.408-36.049 0-5.616-1.0248-10.984-2.8008-16zm144 0h53.602c-1.776 5.016-2.8008 10.384-2.8008 16 0 14.368 6.3762 27.249 16.408 36.049-17.544 6.112-32 18.783-40.408 35.111-8.416-16.328-22.872-28.999-40.408-35.111 10.032-8.8 16.408-21.681 16.408-36.049 0-5.616-1.0248-10.984-2.8008-16zm-197.2 64h16c28.168 0 51.536 20.896 55.432 48h-126.86c3.896-27.104 27.264-48 55.432-48zm144 0h16c28.168 0 51.536 20.896 55.432 48h-126.86c3.896-27.104 27.264-48 55.432-48zm144 0h16c28.168 0 51.536 20.896 55.432 48h-126.86c3.896-27.104 27.264-48 55.432-48z" stroke-width="8"/>
  <path transform="matrix(.26458 0 0 .26458 40.217 48.767)" d="m496 18.898c-60.08 4.74e-4 -108.78 48.705-108.79 108.79 4.7e-4 60.08 48.705 108.78 108.79 108.79 60.08-4.7e-4 108.78-48.705 108.79-108.79-4.8e-4 -60.08-48.705-108.78-108.79-108.79zm65.209 47.488a16.768 16.768 0 0 1 10.047 3.1602 16.768 16.768 0 0 1 3.8008 23.408l-76.121 105.64a16.77 16.77 0 0 1-26.377 1.0547l-52.16-61.307a16.768 16.768 0 0 1 1.9121-23.637 16.768 16.768 0 0 1 23.637 1.9043l38.291 45.016 63.609-88.281a16.768 16.768 0 0 1 13.361-6.9609z" stop-color="#000000" style="paint-order:stroke markers fill"/>
 </g>
</svg>
