<svg fill="#ff0000" id="Layer_5" enable-background="new 0 0 64 64" height="512" viewBox="0 0 64 64" width="512" xmlns="http://www.w3.org/2000/svg"><path d="m63 31v-30h-42v10h-5.54c.954-1.063 1.54-2.462 1.54-4 0-3.309-2.691-6-6-6s-6 2.691-6 6c0 1.796.797 3.406 2.051 4.506-3.516 1.225-6.051 4.565-6.051 8.494v3c0 2.206 1.794 4 4 4v10.5c0 .539.133 1.044.351 1.5h-4.351v8h4.35c-.222.627-.35 1.298-.35 2 0 1.796.797 3.406 2.051 4.506-3.516 1.225-6.051 4.565-6.051 8.494v1h18 2 16 2 18v-1c0-3.929-2.535-7.269-6.051-8.494 1.254-1.1 2.051-2.71 2.051-4.506 0-.702-.128-1.373-.35-2h10.35v-8h-6.434l-4.8-8zm-40-28h38v26h-38v-12h3c1.302 0 2.402-.839 2.816-2h12.184v-10h-16v6h-2zm-6.351 36c.218-.456.351-.961.351-1.5v-20.5h4v14h11.234l-4.8 8zm17.917-8h2.668l-4.8 8h-2.668zm4.434.944v7.056h-4.234zm2-.944h2v8h-2zm4 .944 4.234 7.056h-4.234zm-16.184-18.944c-.302-.847-.969-1.514-1.816-1.816v-4.184h12v6zm-17.816-10c2.206 0 4 1.794 4 4s-1.794 4-4 4-4-1.794-4-4 1.794-4 4-4zm-4 34.5v-17.5h-2v5c-1.103 0-2-.897-2-2v-3c0-3.86 3.14-7 7-7h16c.551 0 1 .449 1 1s-.449 1-1 1h-11v22.5c0 .827-.673 1.5-1.5 1.5s-1.5-.673-1.5-1.5v-13.5h-2v13.5c0 .827-.673 1.5-1.5 1.5s-1.5-.673-1.5-1.5zm4 7.5c2.206 0 4 1.794 4 4s-1.794 4-4 4-4-1.794-4-4 1.794-4 4-4zm-7.929 16c.487-3.388 3.408-6 6.929-6h2c3.521 0 6.442 2.612 6.929 6zm11.878-7.494c1.254-1.1 2.051-2.71 2.051-4.506 0-.702-.128-1.373-.35-2h6.7c-.222.627-.35 1.298-.35 2 0 1.796.797 3.406 2.051 4.506-2.193.764-4 2.348-5.051 4.389-1.052-2.041-2.859-3.625-5.051-4.389zm18.051-4.506c0 2.206-1.794 4-4 4s-4-1.794-4-4 1.794-4 4-4 4 1.794 4 4zm-11.929 12c.487-3.388 3.408-6 6.929-6h2c3.521 0 6.442 2.612 6.929 6zm11.878-7.494c1.254-1.1 2.051-2.71 2.051-4.506 0-.702-.128-1.373-.35-2h6.7c-.222.627-.35 1.298-.35 2 0 1.796.797 3.406 2.051 4.506-2.193.764-4 2.348-5.051 4.389-1.052-2.041-2.859-3.625-5.051-4.389zm15.051 1.494c3.521 0 6.442 2.612 6.929 6h-15.858c.487-3.388 3.408-6 6.929-6zm-1-2c-2.206 0-4-1.794-4-4s1.794-4 4-4 4 1.794 4 4-1.794 4-4 4zm14-8h-9.54c-1.099-1.224-2.688-2-4.46-2s-3.36.776-4.46 2h-9.08c-1.099-1.224-2.688-2-4.46-2s-3.36.776-4.46 2h-9.08c-1.099-1.224-2.688-2-4.46-2s-3.36.776-4.46 2h-3.54v-4h58zm-6.766-6h-2.668l-4.8-8h2.668z"/><path d="m41 23v2h-2v-8h-2v8h-2v2h24v-14h-2v12h-2v-10h-2v10h-2v-4h-2v4h-2v-6h-2v6h-2v-2z"/><path d="m43 5h2v2h-2z"/><path d="m47 5h12v2h-12z"/><path d="m43 9h16v2h-16z"/><path d="m25 21h2v2h-2z"/><path d="m25 25h2v2h-2z"/></svg>